<svg width="340" height="303" viewBox="0 0 340 303" fill="none" xmlns="http://www.w3.org/2000/svg">
<mask id="mask0" mask-type="alpha" maskUnits="userSpaceOnUse" x="0" y="0" width="340" height="303">
<path d="M0 20C0 8.95431 8.95431 0 20 0H320C331.046 0 340 8.95431 340 20V303H0V20Z" fill="#F2F2EB"/>
</mask>
<g mask="url(#mask0)">
<path d="M0.00012207 20C0.00012207 8.95431 8.95443 0 20.0001 0H320C331.046 0 340 8.95431 340 20V303H0.00012207V20Z" fill="#F2F2EB"/>
<path d="M243.08 224.258C237.39 224.252 231.934 221.987 227.911 217.96C223.887 213.934 221.624 208.474 221.617 202.78V173.276H192.151C186.458 173.276 180.999 171.013 176.974 166.985C172.949 162.957 170.688 157.494 170.688 151.797C170.688 146.101 172.949 140.638 176.974 136.61C180.999 132.582 186.458 130.319 192.151 130.319H221.633V100.815C221.633 95.1184 223.894 89.6552 227.919 85.6272C231.944 81.5992 237.404 79.3362 243.096 79.3362C248.788 79.3362 254.248 81.5992 258.273 85.6272C262.298 89.6552 264.559 95.1184 264.559 100.815V130.319H294.049C299.741 130.319 305.201 132.582 309.226 136.61C313.251 140.638 315.512 146.101 315.512 151.797C315.512 157.494 313.251 162.957 309.226 166.985C305.201 171.013 299.741 173.276 294.049 173.276H264.559V202.78C264.553 208.477 262.287 213.939 258.26 217.966C254.233 221.993 248.774 224.256 243.08 224.258Z" fill="#C4E8E5"/>
<path d="M284.302 266.861C284.302 269.801 283.432 272.674 281.8 275.118C280.168 277.562 277.849 279.467 275.135 280.592C272.421 281.716 269.435 282.011 266.555 281.437C263.674 280.864 261.028 279.448 258.951 277.37C256.874 275.292 255.46 272.644 254.887 269.761C254.314 266.878 254.608 263.89 255.732 261.174C256.856 258.459 258.759 256.138 261.201 254.505C263.644 252.872 266.515 252 269.452 252C273.391 252 277.168 253.566 279.953 256.353C282.738 259.14 284.302 262.92 284.302 266.861" fill="#0A45B8"/>
<path d="M97.4791 42.2679C97.477 49.7623 94.5011 56.9492 89.2056 62.2485C83.9101 67.5479 76.7285 70.526 69.2395 70.528C61.7499 70.528 54.5671 67.5506 49.2712 62.2508C43.9752 56.951 41 49.763 41 42.2679C40.999 38.5561 41.7287 34.8804 43.1474 31.4508C44.5661 28.0213 46.646 24.905 49.2684 22.28C51.8908 19.6549 55.0042 17.5726 58.4309 16.1519C61.8576 14.7312 65.5304 14 69.2395 14C76.7299 14.0021 83.9127 16.9812 89.2084 22.2822C94.5041 27.5833 97.4791 34.7722 97.4791 42.2679" stroke="#C4E8E5" stroke-width="14.49" stroke-miterlimit="10"/>
<path d="M317.994 202.271L312.523 207.746L307.052 202.271C306.277 201.498 305.227 201.064 304.132 201.064C303.038 201.064 301.988 201.498 301.213 202.271V202.271C300.829 202.654 300.524 203.109 300.315 203.611C300.107 204.112 300 204.65 300 205.193C300 205.736 300.107 206.273 300.315 206.774C300.524 207.276 300.829 207.731 301.213 208.114L306.684 213.589L301.213 219.065C300.829 219.448 300.524 219.903 300.315 220.404C300.107 220.906 300 221.443 300 221.986C300 222.529 300.107 223.066 300.315 223.568C300.524 224.069 300.829 224.524 301.213 224.907V224.907C301.988 225.681 303.038 226.115 304.132 226.115C305.227 226.115 306.277 225.681 307.052 224.907L312.523 219.432L317.994 224.907C318.769 225.681 319.819 226.115 320.914 226.115C322.008 226.115 323.058 225.681 323.833 224.907V224.907C324.217 224.524 324.523 224.069 324.731 223.568C324.939 223.066 325.046 222.529 325.046 221.986C325.046 221.443 324.939 220.906 324.731 220.404C324.523 219.903 324.217 219.448 323.833 219.065L318.362 213.589L323.833 208.114C324.217 207.731 324.523 207.276 324.731 206.774C324.939 206.273 325.046 205.736 325.046 205.193C325.046 204.65 324.939 204.112 324.731 203.611C324.523 203.109 324.217 202.654 323.833 202.271V202.271C323.058 201.498 322.008 201.064 320.914 201.064C319.819 201.064 318.769 201.498 317.994 202.271V202.271Z" fill="#EFB9D5"/>
<path d="M116.798 215.591C121.28 215.59 125.717 216.473 129.858 218.189C133.998 219.905 137.76 222.42 140.929 225.591C144.098 228.762 146.611 232.527 148.326 236.67C150.04 240.814 150.922 245.255 150.921 249.739V269.948H163.106C166.892 269.948 170.523 271.454 173.2 274.133C175.878 276.812 177.382 280.446 177.382 284.235H107.399L105.576 282.41C88.2365 265.054 78.4949 241.517 78.4932 216.974C78.4951 197.937 86.0535 179.68 99.506 166.219C112.958 152.758 131.203 145.196 150.227 145.196L150.95 80.3834L164.698 95.0171C173.592 91.8634 183.299 91.8634 192.193 95.0171L205.94 80.3834L204.298 146.369L193.141 189.09C187.465 210.846 187.948 233.753 194.537 255.249L199.667 272.012C202.253 272.012 204.732 273.039 206.561 274.868C208.39 276.697 209.419 279.178 209.421 281.765V284.582H190.225" stroke="#EFB9D5" stroke-width="7.2" stroke-linecap="round" stroke-linejoin="round"/>
<path d="M84.5494 181.885C80.9316 203.753 75.0273 208.676 68.0957 220.45C63.3781 228.415 58.0455 236.872 58.9137 247.552C60.5128 267.298 77.2776 268.312 88.1237 268.058" stroke="#EFB9D5" stroke-width="7.2" stroke-linecap="round" stroke-linejoin="round"/>
<path d="M105.721 284.162C102.023 284.162 90.5765 284.582 80.7723 284.423C70.0564 284.423 58.7762 279.513 51.8301 273.402C44.4136 266.885 40.6583 257.429 41.2661 246.785C42.1199 231.76 47.1342 222.354 53.61 212.854" stroke="#EFB9D5" stroke-width="7.2" stroke-linecap="round" stroke-linejoin="round"/>
<path d="M83.6376 187.555C88.0947 162.248 74.9549 144.964 55.8964 140.938C45.9935 138.843 35.6644 140.77 27.1811 146.295C18.6977 151.82 12.7548 160.492 10.6597 170.401C8.98594 178.328 10.5269 186.595 14.9436 193.384C19.3603 200.174 26.2911 204.929 34.2114 206.606C40.5437 207.945 47.1481 206.714 52.5746 203.184C58.001 199.655 61.8059 194.114 63.1537 187.779C63.6842 185.267 63.7149 182.675 63.2442 180.151C62.7735 177.627 61.8105 175.22 60.4103 173.068C59.01 170.917 57.1999 169.062 55.0834 167.611C52.9669 166.159 50.5853 165.139 48.0748 164.609C44.0183 163.757 39.7901 164.552 36.3186 166.818C32.847 169.084 30.4159 172.636 29.559 176.694C28.88 179.941 29.5167 183.325 31.3292 186.103C33.1417 188.88 35.9818 190.825 39.2257 191.508" stroke="#EFB9D5" stroke-width="7.2" stroke-linecap="round" stroke-linejoin="round"/>
<path d="M310.955 67.6348L287.491 108.128" stroke="#0A45B8" stroke-width="3.95" stroke-linecap="round" stroke-linejoin="round"/>
<path d="M277.331 102.231L300.787 61.7372" stroke="#0A45B8" stroke-width="3.95" stroke-linecap="round" stroke-linejoin="round"/>
<path d="M232.005 191.477L242.338 173.636" stroke="#0A45B8" stroke-width="3.95" stroke-linecap="round" stroke-linejoin="round"/>
<path d="M267.584 96.9274L296.316 113.596" stroke="#0A45B8" stroke-width="3.95" stroke-linecap="round" stroke-linejoin="round"/>
<path d="M280.107 75.3282L308.839 91.9958L278.119 145.029C276.976 147.003 275.095 148.442 272.892 149.029C270.688 149.615 268.342 149.302 266.369 148.158L252.574 140.155C250.602 139.011 249.164 137.129 248.578 134.924C247.991 132.719 248.304 130.371 249.448 128.397L280.168 75.3635L280.107 75.3282Z" stroke="#0A45B8" stroke-width="3.95" stroke-linecap="round" stroke-linejoin="round"/>
<path d="M319.92 72.8462L291.195 56.1825L295.566 48.6373C295.948 47.9768 296.577 47.4955 297.314 47.2992C298.052 47.1029 298.837 47.2077 299.497 47.5906L323.245 61.3671C323.905 61.75 324.386 62.3795 324.582 63.1173C324.778 63.855 324.674 64.6405 324.291 65.301L319.92 72.8462Z" stroke="#0A45B8" stroke-width="3.95" stroke-linecap="round" stroke-linejoin="round"/>
<path d="M250.072 138.741L268.769 149.587L261.694 161.802C261.315 162.455 260.693 162.931 259.964 163.126C259.235 163.32 258.458 163.216 257.805 162.837L244.031 154.847C243.378 154.468 242.902 153.845 242.708 153.116C242.514 152.386 242.618 151.609 242.996 150.956L250.072 138.741Z" stroke="#0A45B8" stroke-width="3.95" stroke-linecap="round" stroke-linejoin="round"/>
<path d="M246.047 156.021L255.792 161.674L248.344 174.531C248.06 175.021 247.593 175.378 247.046 175.524C246.5 175.67 245.917 175.592 245.428 175.308L239.376 171.797C238.886 171.513 238.529 171.046 238.384 170.499C238.238 169.951 238.316 169.369 238.6 168.879L246.047 156.021Z" stroke="#0A45B8" stroke-width="3.95" stroke-linecap="round" stroke-linejoin="round"/>
</g>
</svg>
