<svg width="340" height="303" viewBox="0 0 340 303" fill="none" xmlns="http://www.w3.org/2000/svg">
<mask id="mask0" mask-type="alpha" maskUnits="userSpaceOnUse" x="0" y="0" width="340" height="303">
<path d="M0 20C0 8.95431 8.95431 0 20 0H320C331.046 0 340 8.95431 340 20V303H0V20Z" fill="#F2F2EB"/>
</mask>
<g mask="url(#mask0)">
<path d="M0 20C0 8.95431 8.95431 0 20 0H320C331.046 0 340 8.95431 340 20V303H0V20Z" fill="#F2F2EB"/>
<path d="M248.628 252.525C241.853 252.517 235.357 249.843 230.565 245.089C225.774 240.334 223.079 233.889 223.071 227.165V192.326H187.961C184.571 192.378 181.204 191.761 178.057 190.51C174.909 189.259 172.044 187.399 169.628 185.038C167.212 182.678 165.294 179.864 163.984 176.761C162.674 173.658 162 170.327 162 166.963C162 163.598 162.674 160.268 163.984 157.165C165.294 154.061 167.212 151.248 169.628 148.887C172.044 146.527 174.909 144.667 178.057 143.416C181.204 142.165 184.571 141.547 187.961 141.6H223.071V106.761C223.018 103.397 223.64 100.056 224.901 96.9329C226.162 93.8099 228.036 90.9669 230.415 88.5696C232.794 86.1722 235.63 84.2683 238.757 82.9688C241.884 81.6693 245.241 81 248.631 81C252.022 81 255.378 81.6693 258.506 82.9688C261.633 84.2683 264.469 86.1722 266.847 88.5696C269.226 90.9669 271.101 93.8099 272.362 96.9329C273.622 100.056 274.245 103.397 274.192 106.761V141.6H309.302C312.692 141.547 316.059 142.165 319.206 143.416C322.353 144.667 325.218 146.527 327.634 148.887C330.05 151.248 331.969 154.061 333.279 157.165C334.588 160.268 335.263 163.598 335.263 166.963C335.263 170.327 334.588 173.658 333.279 176.761C331.969 179.864 330.05 182.678 327.634 185.038C325.218 187.399 322.353 189.259 319.206 190.51C316.059 191.761 312.692 192.378 309.302 192.326H274.192V227.165C274.184 233.89 271.488 240.336 266.695 245.091C261.903 249.845 255.405 252.519 248.628 252.525V252.525Z" fill="#C4E8E5"/>
<path d="M280.249 257.083L300.57 222.771C301.019 221.98 301.251 221.087 301.244 220.18C301.237 219.272 300.991 218.382 300.53 217.599C300.07 216.815 299.411 216.164 298.618 215.711C297.826 215.258 296.928 215.018 296.014 215.016H289.018V218.459H296.053C296.358 218.455 296.66 218.53 296.927 218.677C297.194 218.824 297.418 219.038 297.576 219.298C297.734 219.557 297.821 219.854 297.828 220.157C297.835 220.46 297.762 220.76 297.616 221.026L278.545 253.166L259.552 221.034C259.4 220.771 259.32 220.473 259.32 220.169C259.32 219.866 259.4 219.568 259.552 219.304C259.704 219.042 259.924 218.824 260.189 218.673C260.454 218.522 260.754 218.443 261.06 218.444H268.016V215H261.06C260.146 215.004 259.249 215.244 258.458 215.698C257.667 216.152 257.009 216.803 256.549 217.586C256.089 218.37 255.844 219.259 255.837 220.166C255.831 221.073 256.063 221.966 256.511 222.756L276.794 257.075V265.257H263.803C260.502 265.219 257.264 266.158 254.503 267.954C251.742 269.75 249.583 272.322 248.302 275.341C247.02 278.361 246.675 281.69 247.31 284.905C247.944 288.12 249.53 291.075 251.865 293.391C254.199 295.708 257.177 297.281 260.417 297.911C263.657 298.541 267.012 298.198 270.055 296.927C273.098 295.655 275.69 293.513 277.5 290.773C279.31 288.033 280.256 284.82 280.217 281.545V268.771H301.211V265.319H280.264L280.249 257.083ZM276.755 281.769C276.755 283.725 276.311 285.656 275.456 287.418C274.6 289.181 273.356 290.729 271.815 291.949C270.275 293.168 268.477 294.028 266.555 294.464C264.634 294.9 262.638 294.9 260.716 294.466C256.277 293.519 251.798 289.075 250.844 284.67C250.407 282.763 250.407 280.783 250.846 278.876C251.285 276.969 252.152 275.185 253.381 273.656C254.61 272.127 256.171 270.893 257.947 270.044C259.723 269.196 261.668 268.755 263.639 268.755H276.739L276.755 281.769Z" fill="#0A45B8"/>
<path d="M311.724 260.084C310.341 260.084 308.988 260.491 307.838 261.254C306.688 262.017 305.791 263.101 305.262 264.369C304.732 265.638 304.594 267.033 304.863 268.38C305.133 269.726 305.8 270.963 306.778 271.934C307.756 272.905 309.003 273.566 310.36 273.834C311.717 274.102 313.123 273.964 314.401 273.439C315.68 272.913 316.772 272.024 317.541 270.882C318.31 269.741 318.72 268.399 318.72 267.026C318.72 265.185 317.983 263.419 316.671 262.117C315.359 260.816 313.58 260.084 311.724 260.084Z" fill="#0A45B8"/>
<path d="M29.6182 171.078L31.0609 206.14L27.317 249.757C26.2493 262.221 29.863 274.635 37.4522 284.574H57.9103V282.64C57.9103 279.981 56.8571 277.432 54.9815 275.549C53.106 273.667 50.5611 272.606 47.9049 272.598C45.6158 269.619 43.9627 266.201 43.0482 262.557C42.1337 258.912 41.9772 255.118 42.5884 251.41L43.6416 245.029L44.8174 244.22C52.1358 239.212 58.123 232.494 62.26 224.646C66.3969 216.799 68.5586 208.061 68.5577 199.189V193.262L87.1979 203.043C102.274 210.984 125.43 213.67 142.231 210.782V258.326C142.233 263.415 143.195 268.458 145.066 273.19L149.539 284.574H172.702C172.702 281.702 171.562 278.948 169.533 276.917C167.503 274.887 164.751 273.746 161.881 273.746C158.367 265.964 157.41 257.267 159.147 248.905L163.555 213.475L183.291 192.973C187.214 188.9 190.002 183.87 191.378 178.384L197.95 152.179L220.031 155.839C222.654 156.184 225.321 155.734 227.686 154.546C230.051 153.358 232.006 151.487 233.297 149.176L236.276 143.863L239.407 139.235L216.489 121.91V120.964C216.489 116.178 214.589 111.587 211.207 108.203C207.825 104.818 203.238 102.917 198.455 102.917L195.786 81L183.053 103.617L141.214 139.51L50.3215 146.808" stroke="#EFB9D5" stroke-width="6.82" stroke-linecap="round" stroke-linejoin="round"/>
<path d="M58.5884 232.071L75.4396 282.863H97.4485C97.4485 276.467 94.0365 271.277 87.6379 271.277H85.8994L81.9319 245.195L87.5297 236.929C92.435 229.652 94.931 222.643 96.1862 214.031" stroke="#EFB9D5" stroke-width="6.82" stroke-linecap="round" stroke-linejoin="round"/>
<path d="M168.453 230.115L181.892 244.654L179.49 249.389C177.983 252.365 177.269 255.679 177.419 259.012C177.568 262.345 178.574 265.582 180.341 268.411L191.652 251.62C193.604 248.72 194.626 245.294 194.581 241.799C194.535 238.303 193.426 234.904 191.4 232.056L174.037 203.794" stroke="#EFB9D5" stroke-width="6.82" stroke-linecap="round" stroke-linejoin="round"/>
<path d="M29.7193 171C16.0782 169.686 17.795 149.111 12.2621 135.532C10.7487 131.823 9.98019 127.852 10.0004 123.846C10.0206 119.839 10.8291 115.876 12.3798 112.183C13.9306 108.489 16.1931 105.137 19.0382 102.319C21.8834 99.5001 25.2554 97.27 28.9618 95.7556C34.954 93.3127 41.6704 93.3519 47.6336 95.8645C53.5969 98.3772 58.3185 103.158 60.7598 109.154C61.7291 111.526 62.2214 114.066 62.2085 116.629C62.1957 119.192 61.6779 121.727 60.685 124.089C59.692 126.451 58.2432 128.594 56.4216 130.395C54.6 132.197 52.4413 133.621 50.0691 134.586C46.2369 136.152 41.9404 136.13 38.1243 134.526C34.3082 132.921 31.2849 129.866 29.7193 126.032C29.0995 124.512 28.7849 122.885 28.7935 121.244C28.8021 119.603 29.1337 117.979 29.7694 116.466C30.4052 114.953 31.3325 113.58 32.4985 112.426C33.6645 111.272 35.0464 110.358 36.5651 109.739C39.0137 108.749 41.754 108.77 44.1871 109.797C46.6202 110.824 48.5482 112.773 49.5497 115.218" stroke="#EFB9D5" stroke-width="6.82" stroke-linecap="round" stroke-linejoin="round"/>
<path d="M254.14 150.505L266.453 139.151L279.723 153.32L267.409 164.674C265.515 166.42 263 167.348 260.417 167.254C257.834 167.16 255.394 166.052 253.635 164.173C251.875 162.294 250.94 159.798 251.034 157.235C251.129 154.672 252.246 152.251 254.14 150.505Z" fill="#C4E8E5" stroke="#0A45B8" stroke-width="3.29201" stroke-miterlimit="10"/>
<path d="M292.119 141.877L279.8 153.235L266.531 139.066L278.849 127.707C280.743 125.961 283.258 125.033 285.841 125.127C288.424 125.221 290.864 126.33 292.624 128.209C294.383 130.087 295.319 132.583 295.224 135.146C295.129 137.71 294.012 140.131 292.119 141.877Z" fill="#0A45B8" stroke="#0A45B8" stroke-width="3.29201" stroke-miterlimit="10"/>
<path d="M113.48 41.2679C113.478 48.7623 110.502 55.9492 105.206 61.2485C99.9106 66.5479 92.729 69.526 85.24 69.528C77.7504 69.528 70.5676 66.5506 65.2717 61.2508C59.9757 55.951 57.0005 48.763 57.0005 41.2679C56.9995 37.5561 57.7291 33.8804 59.1479 30.4508C60.5666 27.0213 62.6465 23.905 65.2689 21.28C67.8913 18.6549 71.0047 16.5726 74.4314 15.1519C77.8581 13.7312 81.5309 13 85.24 13C92.7303 13.0021 99.9132 15.9812 105.209 21.2822C110.505 26.5833 113.48 33.7722 113.48 41.2679" stroke="#C4E8E5" stroke-width="14.49" stroke-miterlimit="10"/>
<path d="M288.481 69.3207C289.81 69.4773 291.092 69.9039 292.248 70.5737C293.403 71.2434 294.407 72.1422 295.198 73.2138C295.988 74.2855 296.547 75.5072 296.841 76.8027C297.134 78.0982 297.156 79.4398 296.904 80.7439C296.652 82.0481 296.132 83.2868 295.377 84.383C294.622 85.4791 293.647 86.4092 292.514 87.1152C291.381 87.8213 290.113 88.2881 288.79 88.4868C287.467 88.6855 286.116 88.6116 284.823 88.2699L288.481 69.3207Z" fill="#0A45B8" stroke="#0A45B8" stroke-width="3.29201" stroke-miterlimit="10"/>
<path d="M284.849 88.2763C283.52 88.1212 282.236 87.6958 281.08 87.0268C279.923 86.3578 278.917 85.4594 278.126 84.3878C277.335 83.3161 276.774 82.0942 276.48 80.7981C276.185 79.5021 276.163 78.1597 276.415 76.8548C276.666 75.5499 277.186 74.3104 277.941 73.2135C278.697 72.1167 279.672 71.1862 280.806 70.4799C281.94 69.7736 283.209 69.3067 284.533 69.1084C285.857 68.91 287.207 68.9845 288.501 69.3271L284.849 88.2763Z" stroke="#0A45B8" stroke-width="3.29201" stroke-miterlimit="10"/>
<path d="M308.371 126.968C307.032 126.949 305.711 126.657 304.49 126.109C303.27 125.562 302.177 124.77 301.278 123.785C300.38 122.799 299.696 121.64 299.269 120.381C298.842 119.121 298.681 117.788 298.797 116.464C298.912 115.14 299.301 113.853 299.94 112.685C300.579 111.517 301.453 110.492 302.509 109.674C303.565 108.856 304.779 108.263 306.076 107.932C307.373 107.6 308.725 107.538 310.047 107.748L308.371 126.968Z" fill="#0A45B8" stroke="#0A45B8" stroke-width="3.29201" stroke-miterlimit="10"/>
<path d="M310.021 107.741C311.356 107.766 312.672 108.063 313.886 108.613C315.101 109.163 316.189 109.956 317.083 110.94C317.976 111.925 318.656 113.082 319.08 114.338C319.505 115.595 319.664 116.924 319.549 118.245C319.434 119.565 319.047 120.847 318.411 122.013C317.776 123.178 316.906 124.202 315.855 125.02C314.804 125.838 313.596 126.433 312.304 126.768C311.011 127.103 309.664 127.171 308.344 126.968L310.021 107.741Z" stroke="#0A45B8" stroke-width="3.29201" stroke-miterlimit="10"/>
</g>
</svg>
