<svg width="340" height="303" viewBox="0 0 340 303" fill="none" xmlns="http://www.w3.org/2000/svg">
<mask id="mask0" mask-type="alpha" maskUnits="userSpaceOnUse" x="0" y="0" width="340" height="303">
<path d="M0 20C0 8.95431 8.95431 0 20 0H320C331.046 0 340 8.95431 340 20V303H0V20Z" fill="#F2F2EB"/>
</mask>
<g mask="url(#mask0)">
<path d="M0 20C0 8.95431 8.95431 0 20 0H320C331.046 0 340 8.95431 340 20V303H0V20Z" fill="#F2F2EB"/>
<path d="M314.96 143.02C312.413 140.477 309.388 138.46 306.059 137.084C302.73 135.708 299.162 135 295.558 135C291.955 135 288.387 135.708 285.058 137.084C281.728 138.46 278.704 140.477 276.157 143.02L239.49 179.581L202.85 143.02C197.704 137.886 190.723 135.002 183.445 135.002C176.167 135.002 169.187 137.886 164.04 143.02V143.02C161.491 145.561 159.469 148.578 158.09 151.898C156.71 155.219 156 158.778 156 162.373C156 165.967 156.71 169.527 158.09 172.847C159.469 176.168 161.491 179.185 164.04 181.726L200.693 218.287L239.49 257L314.96 181.726C317.509 179.185 319.531 176.168 320.91 172.847C322.29 169.527 323 165.967 323 162.373C323 158.778 322.29 155.219 320.91 151.898C319.531 148.578 317.509 145.561 314.96 143.02V143.02Z" fill="#0A45B8"/>
<path d="M281.95 99.9543C281.958 102.903 281.091 105.788 279.46 108.243C277.828 110.699 275.506 112.615 272.786 113.748C270.066 114.882 267.071 115.183 264.18 114.612C261.289 114.042 258.632 112.626 256.546 110.544C254.46 108.461 253.038 105.806 252.46 102.915C251.882 100.023 252.175 97.0253 253.301 94.3003C254.426 91.5754 256.335 89.2459 258.784 87.6069C261.234 85.9679 264.114 85.093 267.06 85.093C271.003 85.0929 274.784 86.6574 277.575 89.4434C280.367 92.2293 281.94 96.0093 281.95 99.9543" fill="#C4E8E5"/>
<path d="M97.4791 42.2679C97.477 49.7623 94.5011 56.9492 89.2056 62.2485C83.9101 67.5479 76.7285 70.526 69.2395 70.528C61.7499 70.528 54.5671 67.5506 49.2712 62.2508C43.9752 56.951 41 49.763 41 42.2679C40.999 38.5561 41.7287 34.8804 43.1474 31.4508C44.5661 28.0213 46.646 24.905 49.2684 22.28C51.8908 19.6549 55.0042 17.5726 58.4309 16.1519C61.8576 14.7312 65.5304 14 69.2395 14C76.7299 14.0021 83.9127 16.9812 89.2084 22.2822C94.5041 27.5833 97.4791 34.7722 97.4791 42.2679" stroke="#C4E8E5" stroke-width="14.49" stroke-miterlimit="10"/>
<path d="M284.384 199.491L293.866 194.292L319.403 240.931C320.089 242.19 320.247 243.67 319.843 245.045C319.439 246.421 318.506 247.58 317.249 248.267V248.267C315.991 248.957 314.512 249.118 313.135 248.716C311.759 248.314 310.599 247.381 309.91 246.123L284.373 199.483L284.384 199.491Z" stroke="#C4E8E5" stroke-width="3.96" stroke-linecap="round" stroke-linejoin="round"/>
<path d="M247.246 205.523L243.989 207.309L246.983 212.778L250.24 210.992L247.246 205.523Z" stroke="#C4E8E5" stroke-width="3.96" stroke-linecap="round" stroke-linejoin="round"/>
<path d="M258.882 277.962C263.784 277.962 267.758 273.986 267.758 269.08C267.758 264.175 263.784 260.198 258.882 260.198C253.98 260.198 250.007 264.175 250.007 269.08C250.007 273.986 253.98 277.962 258.882 277.962Z" stroke="#C4E8E5" stroke-width="3.96" stroke-linecap="round" stroke-linejoin="round"/>
<path d="M266.665 264.813L246.983 212.768" stroke="#C4E8E5" stroke-width="3.96" stroke-linecap="round" stroke-linejoin="round"/>
<path d="M240.758 201.411L236 192.718" stroke="#C4E8E5" stroke-width="3.96" stroke-linecap="round" stroke-linejoin="round"/>
<path d="M263.843 257.356L268.375 254.868" stroke="#C4E8E5" stroke-width="3.96" stroke-linecap="round" stroke-linejoin="round"/>
<path d="M291.257 260.204C296.159 260.204 300.132 256.228 300.132 251.322C300.132 246.417 296.159 242.44 291.257 242.44C286.355 242.44 282.381 246.417 282.381 251.322C282.381 256.228 286.355 260.204 291.257 260.204Z" stroke="#C4E8E5" stroke-width="3.96" stroke-linecap="round" stroke-linejoin="round"/>
<path d="M283.481 255.589L253.702 216.748" stroke="#C4E8E5" stroke-width="3.96" stroke-linecap="round" stroke-linejoin="round"/>
<path d="M247.246 205.518L239.256 190.933" stroke="#C4E8E5" stroke-width="3.96" stroke-linecap="round" stroke-linejoin="round"/>
<path d="M278.716 249.201L274.184 251.683" stroke="#C4E8E5" stroke-width="3.96" stroke-linecap="round" stroke-linejoin="round"/>
<path d="M286.883 204.051L301.44 208.122" stroke="#C4E8E5" stroke-width="3.96" stroke-linecap="round" stroke-linejoin="round"/>
<path d="M289.938 209.632L304.5 213.704" stroke="#C4E8E5" stroke-width="3.96" stroke-linecap="round" stroke-linejoin="round"/>
<path d="M299.094 216.925L307.56 219.297" stroke="#C4E8E5" stroke-width="3.96" stroke-linecap="round" stroke-linejoin="round"/>
<path d="M292.473 195.047L278.209 169C276.039 171.178 274.716 174.058 274.477 177.124C274.329 179.717 274.991 182.291 276.371 184.49C278.784 188.231 281.71 187.919 284.232 191.416C285.638 193.454 286.427 195.854 286.505 198.33" stroke="#C4E8E5" stroke-width="3.96" stroke-linecap="round" stroke-linejoin="round"/>
<path d="M27.6182 171.078L29.0609 206.14L25.317 249.757C24.2493 262.221 27.863 274.635 35.4522 284.574H55.9103V282.64C55.9103 279.981 54.8571 277.432 52.9815 275.549C51.106 273.667 48.5611 272.606 45.9049 272.598C43.6158 269.619 41.9627 266.201 41.0482 262.557C40.1337 258.912 39.9772 255.118 40.5884 251.41L41.6416 245.029L42.8174 244.22C50.1358 239.212 56.123 232.494 60.26 224.646C64.3969 216.799 66.5586 208.061 66.5577 199.189V193.262L85.1979 203.043C100.274 210.984 123.43 213.67 140.231 210.782V258.326C140.233 263.415 141.195 268.458 143.066 273.19L147.539 284.574H170.702C170.702 281.702 169.562 278.948 167.533 276.917C165.503 274.887 162.751 273.746 159.881 273.746C156.367 265.964 155.41 257.267 157.147 248.905L161.555 213.475L181.291 192.973C185.214 188.9 188.002 183.87 189.378 178.384L195.95 152.179L218.031 155.839C220.654 156.184 223.321 155.734 225.686 154.546C228.051 153.358 230.006 151.487 231.297 149.176L234.276 143.863L237.407 139.235L214.489 121.91V120.964C214.489 116.178 212.589 111.587 209.207 108.203C205.825 104.818 201.238 102.917 196.455 102.917L193.786 81L181.053 103.617L139.214 139.51L48.3215 146.808" stroke="#EFB9D5" stroke-width="6.82" stroke-linecap="round" stroke-linejoin="round"/>
<path d="M56.5886 232.071L73.4398 282.863H95.4488C95.4488 276.467 92.0367 271.277 85.6382 271.277H83.8997L79.9321 245.195L85.53 236.929C90.4353 229.652 92.9312 222.643 94.1864 214.031" stroke="#EFB9D5" stroke-width="6.82" stroke-linecap="round" stroke-linejoin="round"/>
<path d="M166.453 230.115L179.892 244.654L177.49 249.389C175.983 252.365 175.269 255.679 175.418 259.012C175.567 262.345 176.574 265.582 178.341 268.411L189.652 251.62C191.604 248.72 192.625 245.294 192.58 241.799C192.535 238.303 191.426 234.904 189.4 232.056L172.036 203.794" stroke="#EFB9D5" stroke-width="6.82" stroke-linecap="round" stroke-linejoin="round"/>
<path d="M27.7193 171C14.0782 169.686 15.795 149.111 10.2621 135.532C8.74874 131.823 7.98019 127.852 8.00039 123.846C8.02058 119.839 8.82912 115.876 10.3798 112.183C11.9306 108.489 14.1931 105.137 17.0382 102.319C19.8834 99.5001 23.2554 97.27 26.9618 95.7556C32.954 93.3127 39.6704 93.3519 45.6336 95.8645C51.5969 98.3772 56.3185 103.158 58.7598 109.154C59.7291 111.526 60.2214 114.066 60.2085 116.629C60.1957 119.192 59.6779 121.727 58.685 124.089C57.692 126.451 56.2432 128.594 54.4216 130.395C52.6 132.197 50.4413 133.621 48.0691 134.586C44.2369 136.152 39.9404 136.13 36.1243 134.526C32.3082 132.921 29.2849 129.866 27.7193 126.032C27.0995 124.512 26.7849 122.885 26.7935 121.244C26.8021 119.603 27.1337 117.979 27.7694 116.466C28.4052 114.953 29.3325 113.58 30.4985 112.426C31.6645 111.272 33.0464 110.358 34.5651 109.739C37.0137 108.749 39.754 108.77 42.1871 109.797C44.6202 110.824 46.5482 112.773 47.5497 115.218" stroke="#EFB9D5" stroke-width="6.82" stroke-linecap="round" stroke-linejoin="round"/>
</g>
</svg>
