<svg width="340" height="303" viewBox="0 0 340 303" fill="none" xmlns="http://www.w3.org/2000/svg">
<mask id="mask0" mask-type="alpha" maskUnits="userSpaceOnUse" x="0" y="0" width="340" height="303">
<path d="M0 20C0 8.95431 8.95431 0 20 0H320C331.046 0 340 8.95431 340 20V303H0V20Z" fill="#F2F2EB"/>
</mask>
<g mask="url(#mask0)">
<path d="M0 20C0 8.95431 8.95431 0 20 0H320C331.046 0 340 8.95431 340 20V303H0V20Z" fill="#F2F2EB"/>
<path d="M300.005 89.0039C300.005 91.9432 299.134 94.8165 297.502 97.2604C295.87 99.7044 293.551 101.609 290.837 102.734C288.124 103.859 285.138 104.153 282.257 103.58C279.376 103.006 276.73 101.591 274.653 99.5125C272.576 97.4341 271.162 94.786 270.589 91.9032C270.016 89.0204 270.31 86.0323 271.434 83.3167C272.558 80.6011 274.462 78.2801 276.904 76.6471C279.346 75.0141 282.217 74.1425 285.154 74.1425C289.093 74.1425 292.87 75.7083 295.655 78.4953C298.44 81.2824 300.005 85.0624 300.005 89.0039" fill="#EFB9D5"/>
<path d="M325 176.481C325.004 179.943 323.981 183.328 322.06 186.208C320.14 189.089 317.408 191.335 314.21 192.662C311.013 193.99 307.494 194.339 304.098 193.666C300.702 192.993 297.582 191.328 295.132 188.881C292.683 186.435 291.014 183.316 290.338 179.921C289.661 176.526 290.006 173.006 291.33 169.808C292.654 166.609 294.897 163.874 297.776 161.951C300.654 160.027 304.038 159 307.5 159C312.141 159 316.592 160.844 319.874 164.126C323.156 167.408 325 171.859 325 176.5" stroke="#C4E8E5" stroke-width="12" stroke-miterlimit="10"/>
<path d="M277.338 228.429L285.241 224.095L306.533 262.982C307.108 264.032 307.242 265.267 306.907 266.416C306.572 267.565 305.794 268.533 304.745 269.109C303.696 269.684 302.462 269.818 301.314 269.483C300.166 269.147 299.198 268.369 298.623 267.319L277.331 228.433L277.338 228.429Z" stroke="#C4E8E5" stroke-width="3.95" stroke-linecap="round" stroke-linejoin="round"/>
<path d="M246.368 233.461L243.654 234.95L246.148 239.505L248.862 238.016L246.368 233.461Z" stroke="#C4E8E5" stroke-width="3.95" stroke-linecap="round" stroke-linejoin="round"/>
<path d="M256.079 293.858C260.167 293.858 263.481 290.542 263.481 286.451C263.481 282.36 260.167 279.043 256.079 279.043C251.991 279.043 248.677 282.36 248.677 286.451C248.677 290.542 251.991 293.858 256.079 293.858Z" stroke="#C4E8E5" stroke-width="3.95" stroke-linecap="round" stroke-linejoin="round"/>
<path d="M262.566 282.892L246.153 239.496" stroke="#C4E8E5" stroke-width="3.95" stroke-linecap="round" stroke-linejoin="round"/>
<path d="M240.971 230.024L237 222.773" stroke="#C4E8E5" stroke-width="3.95" stroke-linecap="round" stroke-linejoin="round"/>
<path d="M260.214 276.673L263.997 274.601" stroke="#C4E8E5" stroke-width="3.95" stroke-linecap="round" stroke-linejoin="round"/>
<path d="M283.076 279.051C287.164 279.051 290.478 275.735 290.478 271.644C290.478 267.553 287.164 264.237 283.076 264.237C278.988 264.237 275.674 267.553 275.674 271.644C275.674 275.735 278.988 279.051 283.076 279.051Z" stroke="#C4E8E5" stroke-width="3.95" stroke-linecap="round" stroke-linejoin="round"/>
<path d="M276.589 275.203L251.757 242.813" stroke="#C4E8E5" stroke-width="3.95" stroke-linecap="round" stroke-linejoin="round"/>
<path d="M246.379 233.45L239.712 221.287" stroke="#C4E8E5" stroke-width="3.95" stroke-linecap="round" stroke-linejoin="round"/>
<path d="M272.618 269.868L268.835 271.941" stroke="#C4E8E5" stroke-width="3.95" stroke-linecap="round" stroke-linejoin="round"/>
<path d="M279.426 232.222L291.564 235.617" stroke="#C4E8E5" stroke-width="3.95" stroke-linecap="round" stroke-linejoin="round"/>
<path d="M281.974 236.876L294.112 240.279" stroke="#C4E8E5" stroke-width="3.95" stroke-linecap="round" stroke-linejoin="round"/>
<path d="M289.61 242.962L296.668 244.94" stroke="#C4E8E5" stroke-width="3.95" stroke-linecap="round" stroke-linejoin="round"/>
<path d="M284.084 224.721L272.196 203C270.382 204.814 269.274 207.216 269.069 209.774C268.943 211.933 269.489 214.078 270.633 215.914C272.649 219.042 275.088 218.777 277.19 221.686C278.36 223.387 279.017 225.388 279.082 227.451" stroke="#C4E8E5" stroke-width="3.95" stroke-linecap="round" stroke-linejoin="round"/>
<path d="M186.96 71.0197C184.413 68.4772 181.388 66.4604 178.059 65.0843C174.73 63.7083 171.162 63 167.558 63C163.955 63 160.387 63.7083 157.058 65.0843C153.728 66.4604 150.704 68.4772 148.157 71.0197L111.49 107.581L74.8503 71.0197C69.7036 65.8862 62.7234 63.0022 55.4451 63.0022C48.1668 63.0022 41.1865 65.8862 36.0399 71.0197V71.0197C33.491 73.5606 31.4691 76.5776 30.0896 79.8983C28.71 83.219 28 86.7783 28 90.3728C28 93.9673 28.71 97.5266 30.0896 100.847C31.4691 104.168 33.491 107.185 36.0399 109.726L72.693 146.287L111.49 185L186.96 109.726C189.509 107.185 191.531 104.168 192.91 100.847C194.29 97.5266 195 93.9673 195 90.3728C195 86.7783 194.29 83.219 192.91 79.8983C191.531 76.5776 189.509 73.5606 186.96 71.0197V71.0197Z" fill="#0A45B8"/>
<path d="M57.7461 118.48L74.6992 89.539C75.0763 88.8728 75.2723 88.1193 75.2676 87.3537C75.263 86.588 75.0579 85.837 74.6728 85.1754C74.2877 84.5138 73.736 83.9648 73.0727 83.5831C72.4095 83.2014 71.6578 83.0004 70.8927 83H65.0463V85.9175H70.8927C71.1456 85.9181 71.3939 85.9844 71.6135 86.1098C71.8331 86.2352 72.0165 86.4155 72.1456 86.633C72.2748 86.8505 72.3454 87.0979 72.3504 87.3509C72.3555 87.6038 72.2949 87.8538 72.1746 88.0763L56.2766 115.187L40.3943 88.1076C40.2689 87.8856 40.2038 87.6345 40.2052 87.3795C40.2067 87.1244 40.2749 86.8741 40.4028 86.6535C40.5308 86.433 40.7142 86.2497 40.9349 86.122C41.1555 85.9942 41.4057 85.9264 41.6606 85.9253H47.4757V83.0156H41.6606C40.8925 83.0166 40.1381 83.2195 39.473 83.6039C38.8079 83.9883 38.2553 84.5409 37.8707 85.2062C37.486 85.8715 37.2828 86.6262 37.2812 87.3949C37.2797 88.1635 37.4799 88.9191 37.8619 89.5859L54.8072 118.527V125.425H43.9898C41.2337 125.402 38.5332 126.201 36.2327 127.72C33.9322 129.239 32.1359 131.41 31.0731 133.955C30.0102 136.499 29.7289 139.303 30.265 142.009C30.801 144.714 32.1303 147.199 34.083 149.145C36.0358 151.092 38.5237 152.412 41.2294 152.938C43.935 153.463 46.7358 153.171 49.2746 152.097C51.8133 151.023 53.975 149.217 55.4837 146.909C56.9925 144.601 57.7801 141.895 57.7461 139.137V128.327H75.2541V125.402H57.7461V118.48ZM54.8229 139.278C54.8277 140.929 54.4595 142.559 53.7459 144.048C53.0322 145.536 51.9914 146.844 50.7015 147.873C49.4116 148.902 47.9059 149.626 46.2969 149.99C44.688 150.355 43.0175 150.351 41.4104 149.978C37.6978 149.196 33.9617 145.433 33.1566 141.726C32.787 140.119 32.7849 138.449 33.1505 136.841C33.5161 135.233 34.2399 133.728 35.2679 132.439C36.296 131.15 37.6016 130.11 39.0875 129.397C40.5734 128.683 42.2011 128.315 43.8491 128.319H54.7916L54.8229 139.278Z" fill="#C4E8E5"/>
<path d="M84.0237 121.006C82.867 121.005 81.7359 121.346 80.7735 121.988C79.811 122.63 79.0604 123.543 78.6167 124.612C78.173 125.681 78.0561 126.858 78.2808 127.993C78.5055 129.129 79.0617 130.172 79.8791 130.991C80.6964 131.81 81.7381 132.368 82.8724 132.594C84.0067 132.821 85.1826 132.705 86.2514 132.263C87.3201 131.82 88.2337 131.07 88.8765 130.108C89.5192 129.146 89.8623 128.014 89.8623 126.857C89.8623 125.306 89.2474 123.819 88.1527 122.722C87.058 121.625 85.5729 121.008 84.0237 121.006Z" fill="#C4E8E5"/>
<path d="M175.399 63.5067L149.198 54.2267C144.371 52.5174 139.074 55.047 137.366 59.8767L128.093 86.0972C126.385 90.927 128.913 96.228 133.739 97.9374L159.94 107.217C164.766 108.927 170.064 106.397 171.772 101.567L181.045 75.3469C182.753 70.5171 180.225 65.2161 175.399 63.5067Z" stroke="#C4E8E5" stroke-width="3.31" stroke-linecap="round" stroke-linejoin="round"/>
<path d="M151.6 89.1211L157.54 72.3278" stroke="#C4E8E5" stroke-width="3.31" stroke-linecap="round" stroke-linejoin="round"/>
<path d="M146.176 77.7483L162.964 83.7007" stroke="#C4E8E5" stroke-width="3.31" stroke-linecap="round" stroke-linejoin="round"/>
<path d="M183.851 50.7566L150.657 39L148.127 46.1524L181.321 57.909L183.851 50.7566Z" stroke="#C4E8E5" stroke-width="3.31" stroke-linecap="round" stroke-linejoin="round"/>
<path d="M178.354 173.346C178.354 173.346 120.962 146.304 87.3608 189.858C53.7592 233.412 80.057 284.651 80.057 284.651H134.326C134.326 284.651 136.731 278.067 129.858 275.66H100.288C100.288 275.66 143.332 258.567 125.827 221.173" stroke="#EFB9D5" stroke-width="7.23" stroke-linecap="round" stroke-linejoin="round"/>
<path d="M146.939 284.651H169.096C169.096 284.651 171.501 278.067 164.628 275.66H139.594C139.594 275.66 133.609 272.194 136.096 263.456" stroke="#EFB9D5" stroke-width="7.23" stroke-linecap="round" stroke-linejoin="round"/>
<path d="M118.878 264.139C118.878 264.139 142.252 267.907 162.264 251.388" stroke="#EFB9D5" stroke-width="7.23" stroke-linecap="round" stroke-linejoin="round"/>
<path d="M192.764 166.174L178.354 173.346" stroke="#EFB9D5" stroke-width="7.23" stroke-linecap="round" stroke-linejoin="round"/>
<path d="M156.395 232.94C156.395 232.94 161.178 243.449 178.3 250.273L197 284.651H214.231C214.231 284.651 215.925 279.181 210.084 277.431L203.798 275.66L198.421 246.041L231.045 192.163C231.045 192.163 246.514 193.783 255.642 175.117C255.642 175.117 264.06 170.768 267.483 163.897C270.906 157.025 267.483 149.128 267.483 149.128L233.321 149.983L211.505 156.82" stroke="#EFB9D5" stroke-width="7.23" stroke-linecap="round" stroke-linejoin="round"/>
<path d="M212.181 156.827C212.181 156.827 206.353 154.407 203.388 150.448C200.423 146.489 197.608 144.499 193.706 145.108C187.072 146.14 180.042 155.849 192.791 163.897C197.589 166.902 203.25 168.223 208.881 167.651" stroke="#EFB9D5" stroke-width="7.23" stroke-linecap="round" stroke-linejoin="round"/>
<path d="M63.8368 210.576C61.1858 226.37 56.9634 229.953 51.9553 238.424C48.5391 244.208 44.6993 250.287 45.3279 257.993C46.4826 272.262 58.5895 272.987 66.4194 272.809" stroke="#EFB9D5" stroke-width="7.23" stroke-linecap="round" stroke-linejoin="round"/>
<path d="M79.1278 284.439C76.4564 284.439 68.196 284.74 61.1109 284.624C53.3766 284.624 45.2324 281.082 40.2106 276.665C34.8541 271.954 32.1485 265.131 32.5789 257.446C33.1938 246.595 36.8218 239.805 41.4951 232.94" stroke="#EFB9D5" stroke-width="7.23" stroke-linecap="round" stroke-linejoin="round"/>
<path d="M63.1809 214.685C66.3989 196.415 56.8951 183.917 43.1484 181.024C39.6069 180.273 35.9522 180.228 32.3932 180.891C28.8343 181.554 25.4407 182.913 22.4065 184.889C19.3723 186.865 16.7569 189.42 14.7098 192.407C12.6627 195.395 11.224 198.758 10.476 202.302C9.26777 208.028 10.3812 213.999 13.5715 218.904C16.7617 223.808 21.7677 227.244 27.4886 228.455C32.0658 229.423 36.8398 228.532 40.7606 225.978C44.6813 223.424 47.4277 219.416 48.3956 214.835C48.7794 213.021 48.8023 211.149 48.463 209.326C48.1237 207.503 47.4289 205.764 46.4182 204.21C45.4075 202.656 44.1007 201.316 42.5725 200.267C41.0443 199.218 39.3246 198.481 37.5117 198.097C34.5816 197.478 31.5255 198.048 29.0155 199.683C26.5055 201.317 24.7471 203.883 24.127 206.815C23.8828 207.978 23.8701 209.178 24.0896 210.346C24.3092 211.515 24.7566 212.628 25.4063 213.623C26.0561 214.618 26.8955 215.475 27.8764 216.145C28.8574 216.816 29.9607 217.286 31.1234 217.529" stroke="#EFB9D5" stroke-width="7.23" stroke-linecap="round" stroke-linejoin="round"/>
</g>
</svg>
