<svg width="340" height="303" viewBox="0 0 340 303" fill="none" xmlns="http://www.w3.org/2000/svg">
<mask id="mask0" mask-type="alpha" maskUnits="userSpaceOnUse" x="0" y="0" width="340" height="303">
<path d="M0 20C0 8.95431 8.95431 0 20 0H320C331.046 0 340 8.95431 340 20V303H0V20Z" fill="#F2F2EB"/>
</mask>
<g mask="url(#mask0)">
<path d="M0 20C0 8.95431 8.95431 0 20 0H320C331.046 0 340 8.95431 340 20V303H0V20Z" fill="#F2F2EB"/>
<path d="M97.4788 42.2679C97.4768 49.7623 94.5009 56.9492 89.2054 62.2485C83.9099 67.5479 76.7283 70.526 69.2393 70.528C61.7497 70.528 54.5669 67.5506 49.2709 62.2508C43.975 56.951 40.9998 49.763 40.9998 42.2679C40.9987 38.5561 41.7284 34.8804 43.1471 31.4508C44.5658 28.0213 46.6458 24.905 49.2682 22.28C51.8905 19.6549 55.004 17.5726 58.4307 16.1519C61.8574 14.7312 65.5302 14 69.2393 14C76.7296 14.0021 83.9124 16.9812 89.2081 22.2822C94.5039 27.5833 97.4788 34.7722 97.4788 42.2679" stroke="#C4E8E5" stroke-width="14.49" stroke-miterlimit="10"/>
<path d="M310.96 143.02C308.413 140.477 305.388 138.46 302.059 137.084C298.73 135.708 295.162 135 291.558 135C287.955 135 284.387 135.708 281.058 137.084C277.728 138.46 274.704 140.477 272.157 143.02L235.49 179.581L198.85 143.02C193.704 137.886 186.723 135.002 179.445 135.002C172.167 135.002 165.187 137.886 160.04 143.02V143.02C157.491 145.561 155.469 148.578 154.09 151.898C152.71 155.219 152 158.778 152 162.373C152 165.967 152.71 169.527 154.09 172.847C155.469 176.168 157.491 179.185 160.04 181.726L196.693 218.287L235.49 257L310.96 181.726C313.509 179.185 315.531 176.168 316.91 172.847C318.29 169.527 319 165.967 319 162.373C319 158.778 318.29 155.219 316.91 151.898C315.531 148.578 313.509 145.561 310.96 143.02V143.02Z" fill="#0A45B8"/>
<path d="M323.57 133.22C323.57 136.16 322.699 139.033 321.068 141.477C319.436 143.921 317.116 145.826 314.403 146.951C311.689 148.075 308.703 148.37 305.823 147.796C302.942 147.223 300.296 145.807 298.219 143.729C296.142 141.651 294.728 139.003 294.154 136.12C293.581 133.237 293.876 130.249 295 127.533C296.124 124.818 298.027 122.497 300.469 120.864C302.911 119.231 305.783 118.359 308.72 118.359C312.658 118.359 316.436 119.925 319.221 122.712C322.006 125.499 323.57 129.279 323.57 133.22" fill="#C4E8E5"/>
<path d="M27.6182 171.078L29.0609 206.14L25.317 249.757C24.2493 262.221 27.863 274.635 35.4522 284.574H55.9103V282.64C55.9103 279.981 54.8571 277.432 52.9815 275.549C51.106 273.667 48.5611 272.606 45.9049 272.598C43.6158 269.619 41.9627 266.201 41.0482 262.557C40.1337 258.912 39.9772 255.118 40.5884 251.41L41.6416 245.029L42.8174 244.22C50.1358 239.212 56.123 232.494 60.26 224.646C64.3969 216.799 66.5586 208.061 66.5577 199.189V193.262L85.1979 203.043C100.274 210.984 123.43 213.67 140.231 210.782V258.326C140.233 263.415 141.195 268.458 143.066 273.19L147.539 284.574H170.702C170.702 281.702 169.562 278.948 167.533 276.917C165.503 274.887 162.751 273.746 159.881 273.746C156.367 265.964 155.41 257.267 157.147 248.905L161.555 213.475L181.291 192.973C185.214 188.9 188.002 183.87 189.378 178.384L195.95 152.179L218.031 155.839C220.654 156.184 223.321 155.734 225.686 154.546C228.051 153.358 230.006 151.487 231.297 149.176L234.276 143.863L237.407 139.235L214.489 121.91V120.964C214.489 116.178 212.589 111.587 209.207 108.203C205.825 104.818 201.238 102.917 196.455 102.917L193.786 81L181.053 103.617L139.214 139.51L48.3215 146.808" stroke="#EFB9D5" stroke-width="6.82" stroke-linecap="round" stroke-linejoin="round"/>
<path d="M56.5886 232.071L73.4398 282.863H95.4488C95.4488 276.467 92.0367 271.277 85.6382 271.277H83.8997L79.9321 245.195L85.53 236.929C90.4353 229.652 92.9312 222.643 94.1864 214.031" stroke="#EFB9D5" stroke-width="6.82" stroke-linecap="round" stroke-linejoin="round"/>
<path d="M166.453 230.115L179.892 244.654L177.49 249.389C175.983 252.365 175.269 255.679 175.418 259.012C175.567 262.345 176.574 265.582 178.341 268.411L189.652 251.62C191.604 248.72 192.625 245.294 192.58 241.799C192.535 238.303 191.426 234.904 189.4 232.056L172.036 203.794" stroke="#EFB9D5" stroke-width="6.82" stroke-linecap="round" stroke-linejoin="round"/>
<path d="M27.7193 171C14.0782 169.686 15.795 149.111 10.2621 135.532C8.74874 131.823 7.98019 127.852 8.00039 123.846C8.02058 119.839 8.82912 115.876 10.3798 112.183C11.9306 108.489 14.1931 105.137 17.0382 102.319C19.8834 99.5001 23.2554 97.27 26.9618 95.7556C32.954 93.3127 39.6704 93.3519 45.6336 95.8645C51.5969 98.3772 56.3185 103.158 58.7598 109.154C59.7291 111.526 60.2214 114.066 60.2085 116.629C60.1957 119.192 59.6779 121.727 58.685 124.089C57.692 126.451 56.2432 128.594 54.4216 130.395C52.6 132.197 50.4413 133.621 48.0691 134.586C44.2369 136.152 39.9404 136.13 36.1243 134.526C32.3082 132.921 29.2849 129.866 27.7193 126.032C27.0995 124.512 26.7849 122.885 26.7935 121.244C26.8021 119.603 27.1337 117.979 27.7694 116.466C28.4052 114.953 29.3325 113.58 30.4985 112.426C31.6645 111.272 33.0464 110.358 34.5651 109.739C37.0137 108.749 39.754 108.77 42.1871 109.797C44.6202 110.824 46.5482 112.773 47.5497 115.218" stroke="#EFB9D5" stroke-width="6.82" stroke-linecap="round" stroke-linejoin="round"/>
<path d="M278.745 279.198C300.281 279.198 317.74 261.727 317.74 240.175C317.74 218.624 300.281 201.153 278.745 201.153C257.209 201.153 239.75 218.624 239.75 240.175C239.75 261.727 257.209 279.198 278.745 279.198Z" stroke="#C4E8E5" stroke-width="3.95" stroke-linecap="round" stroke-linejoin="round"/>
<path d="M278.745 263.938C291.859 263.938 302.49 253.299 302.49 240.175C302.49 227.052 291.859 216.413 278.745 216.413C265.631 216.413 255 227.052 255 240.175C255 253.299 265.631 263.938 278.745 263.938Z" stroke="#C4E8E5" stroke-width="3.95" stroke-linecap="round" stroke-linejoin="round"/>
<path d="M308.806 286.582L293.775 241.31H263.715L248.684 286.582" fill="#F2F2EB"/>
<path d="M308.806 286.582L293.775 241.31H263.715L248.684 286.582" stroke="#C4E8E5" stroke-width="3.95" stroke-linecap="round" stroke-linejoin="round"/>
<path d="M258.522 81.6083C262.835 81.6083 266.331 78.1099 266.331 73.7944C266.331 69.4788 262.835 65.9804 258.522 65.9804C254.21 65.9804 250.714 69.4788 250.714 73.7944C250.714 78.1099 254.21 81.6083 258.522 81.6083Z" stroke="#C4E8E5" stroke-width="3.95" stroke-linecap="round" stroke-linejoin="round"/>
<path d="M227 65.9804C233.288 76.4178 243.461 83.929 255.282 86.8625C267.103 89.796 279.604 87.9117 290.037 81.624C283.75 71.1849 273.577 63.6724 261.756 60.7387C249.934 57.8051 237.432 59.6905 227 65.9804Z" stroke="#C4E8E5" stroke-width="3.95" stroke-linecap="round" stroke-linejoin="round"/>
<path d="M263.22 54.897L265.963 43.837" stroke="#C4E8E5" stroke-width="3.95" stroke-linecap="round" stroke-linejoin="round"/>
<path d="M271.521 58.667L277.883 49.2105" stroke="#C4E8E5" stroke-width="3.95" stroke-linecap="round" stroke-linejoin="round"/>
<path d="M252.918 43L254.114 54.3338" stroke="#C4E8E5" stroke-width="3.95" stroke-linecap="round" stroke-linejoin="round"/>
</g>
</svg>
