<?xml version="1.0" encoding="utf-8"?>
<!-- Generator: Adobe Illustrator 22.0.1, SVG Export Plug-In . SVG Version: 6.00 Build 0)  -->
<svg version="1.1" id="Слой_1" xmlns="http://www.w3.org/2000/svg" xmlns:xlink="http://www.w3.org/1999/xlink" x="0px" y="0px"
	 viewBox="0 0 435 303" style="enable-background:new 0 0 435 303;" xml:space="preserve">
<style type="text/css">
	.st0{clip-path:url(#SVGID_2_);}
	.st1{fill:#F2F2EB;}
	.st2{fill:none;stroke:#C4E8E5;stroke-width:14.55;stroke-miterlimit:10;}
	.st3{fill:#C4E8E5;}
	.st4{fill:none;stroke:#EFB9D5;stroke-width:7.2;stroke-linecap:round;stroke-linejoin:round;}
	.st5{fill:#1649B0;}
</style>
<title>иллюстрации на сайт</title>
<g>
	<defs>
		<rect id="SVGID_1_" x="-0.7" width="436.7" height="303"/>
	</defs>
	<clipPath id="SVGID_2_">
		<use xlink:href="#SVGID_1_"  style="overflow:visible;"/>
	</clipPath>
	<g class="st0">
		<rect x="-0.7" y="-43.3" class="st1" width="436.7" height="389.7"/>
		<path class="st2" d="M97.8,0.2c0,20-16.3,36.3-36.3,36.3S25.2,20.2,25.2,0.2s16.3-36.3,36.3-36.3S97.8-19.9,97.8,0.2"/>
		<path class="st3" d="M391.3,150.1c0,52.5-42.5,95-95,95s-95-42.5-95-95s42.5-95,95-95S391.3,97.6,391.3,150.1"/>
		<path class="st4" d="M129.3,196.6L129.3,196.6c26.1,0,47.2,21.1,47.2,47.2v27.9h16.9c10.9,0,19.7,8.8,19.7,19.7c0,0,0,0,0,0h-96.8
			l-2.5-2.5c-24-24-37.5-56.5-37.5-90.4l0,0c0-54.8,44.4-99.2,99.2-99.2l0,0l1-89.6l19,20.2l0,0c12.3-4.4,25.7-4.4,38.1,0l0,0
			l19-20.2l-2.2,91.2l-15.4,59.1c-7.9,30.1-7.2,61.7,1.9,91.4l7.1,23.2l0,0c7.4,0,13.5,6,13.5,13.5v3.8h-26.6"/>
		<path class="st4" d="M84.7,150.1c-5,30.2-13.2,37.1-22.8,53.3c-6.5,11.1-13.9,22.7-12.7,37.5c2.2,27.3,25.4,28.7,40.4,28.3"/>
		<path class="st4" d="M114,291.4c-5.1,0-21,0.6-34.5,0.4c-14.8,0-30.4-6.8-40-15.2c-10.2-9-15.4-22.1-14.6-36.8
			c1.1-20.8,8-33.8,17-46.9"/>
		<path class="st4" d="M83.4,157.9c6.2-35-12-58.9-38.4-64.4c-28.5-6-56.5,12.2-62.6,40.7c0,0,0,0,0,0c-4.8,22.8,9.8,45.2,32.6,50.1
			c0,0,0,0,0,0c18.3,3.9,36.2-7.8,40-26.1c0,0,0,0,0,0c3.1-14.6-6.2-28.9-20.8-32c0,0,0,0,0,0c-11.7-2.5-23.1,5-25.6,16.7
			c-2,9.3,4,18.5,13.3,20.5c0,0,0,0,0.1,0"/>
		<g id="IUz79i.tif">
		</g>
	</g>
</g>
<g>
	<path class="st5" d="M346.8,157.1c0-0.7,0-1.4,0-2.1c0.1-0.7-0.2-0.8-0.8-0.9c-6.8-0.3-13.4-1.7-19.7-4.4
		c-8.8-3.7-16.3-9.2-22.3-16.6c-8-9.9-12.5-21.2-13.1-33.9c0-0.7-0.2-0.9-0.9-0.9c-1.4,0.1-2.7,0-4.1,0c-1.1,0-1.9-0.7-1.9-1.6
		c-0.1-1,0.7-1.8,1.9-1.8c1.4,0,2.7,0,4.1,0c0.7,0,0.9-0.1,0.9-0.9c0.6-12.1,4.5-23.1,11.9-32.8c9.1-11.9,21.2-19,35.9-21.7
		c2.4-0.5,4.9-0.7,7.4-0.8c0.6,0,0.8-0.2,0.8-0.8c0-1.4,0-2.7,0-4.1c0-1.1,0.7-1.9,1.7-1.9c1,0,1.7,0.7,1.7,1.9c0,1.3,0,2.7,0,4
		c0,0.6,0.1,0.8,0.8,0.9c14.9,0.7,27.8,6.3,38.3,16.9c10.6,10.6,16.2,23.6,16.9,38.6c0,0.6,0.2,0.7,0.8,0.7c1.4,0,2.9,0,4.3,0
		c0.9,0,1.5,0.5,1.8,1.3c0.2,0.8,0,1.4-0.6,1.8c-0.4,0.3-0.9,0.4-1.5,0.4c-1.3,0-2.6,0-3.9,0c-0.6,0-0.8,0.2-0.8,0.8
		c-0.3,6.6-1.7,13-4.2,19.1c-6,14.2-15.9,24.5-29.9,30.9c-6.7,3.1-13.7,4.6-21,5c-0.6,0-0.8,0.2-0.8,0.8c0,1.4,0,2.9,0,4.3
		c0,1.2-0.7,1.9-1.7,1.9c-1,0-1.7-0.7-1.7-1.9C346.8,158.6,346.8,157.9,346.8,157.1z M350.3,52.1c0,0.6,0,1.1,0,1.7
		c0,1.1-0.7,1.9-1.8,1.9c-1,0-1.7-0.7-1.7-1.8c0-1.1,0-2.2,0-3.3c0-0.7-0.2-0.9-0.9-0.9c-16.3,1.3-28.8,8.9-37.4,22.8
		c-2.4,3.9-4,8-5.1,12.5c-0.7,3-1.2,6.1-1.4,9.2c0,0.6,0.1,0.8,0.7,0.8c1,0,2,0,3,0c1.1,0.1,1.8,0.8,1.8,1.8c0,1-0.7,1.6-1.9,1.7
		c-1,0-1.9,0-2.9,0c-0.6,0-0.7,0.1-0.7,0.7c0.2,3.3,0.8,6.6,1.7,9.8c0.9,3.6,2.3,6.9,4.2,10.1c6.2,10.7,15.1,17.9,26.8,21.7
		c3.7,1.2,7.4,1.8,11.3,2c0.6,0,0.9-0.1,0.8-0.8c-0.1-0.8,0-1.6,0-2.4c0-1.2,0.7-2,1.7-2c1,0,1.7,0.8,1.7,2c0,0.8,0,1.6,0,2.4
		c0,0.7,0.2,0.9,0.9,0.8c8.5-0.5,16.3-3.1,23.4-7.8c6.2-4.2,11.2-9.5,14.8-16.1c3.5-6.2,5.4-12.8,5.9-19.8c0-0.5-0.1-0.7-0.6-0.7
		c-1,0-2,0-3.1,0c-1.2,0-2-0.7-2-1.7c0-1,0.8-1.7,2-1.8c0.8,0,1.7,0,2.5,0c1.4,0,1.3,0.3,1.2-1.3c-1.2-19.5-14-35.9-32.6-41.8
		c-3.8-1.2-7.6-1.9-11.6-2.1c-0.6,0-0.9,0.1-0.8,0.8C350.3,51,350.3,51.6,350.3,52.1z M346.8,148.6c0-0.7,0-1.2,0-1.7
		c0-0.4-0.1-0.6-0.6-0.6c-1.2-0.1-2.4-0.1-3.6-0.3c-18.7-2.7-32-12.6-39.9-29.8c-2.5-5.4-3.8-11.1-4.1-17c0-0.6-0.2-0.8-0.8-0.8
		c-0.9,0.1-1.7,0.1-2.6,0c-0.8-0.1-1,0.2-1,1c0.6,10.3,3.7,19.7,9.7,28.1c9.9,13.9,23.5,21.6,40.5,23.1c0.7,0.1,1.6,0.4,2.1,0
		C347.2,150.1,346.7,149.2,346.8,148.6z M350.3,148.4c0,0.6,0,1.1,0,1.6c-0.1,0.6,0.2,0.8,0.8,0.8c2.2-0.1,4.4-0.3,6.5-0.7
		c20.5-4,34.5-15.8,42.1-35.2c1.9-4.9,2.9-10.1,3.2-15.4c0-0.8-0.2-1-1-1c-0.7,0.1-1.5,0.1-2.2,0c-0.7-0.1-0.9,0.2-1,0.9
		c-0.4,6.9-2.1,13.6-5.4,19.7c-8.8,16.3-22.4,25.4-40.8,27.2c-0.7,0.1-1.6-0.2-2,0.3C350,146.9,350.3,147.8,350.3,148.4z
		 M296.4,94.9c0.4,0,0.9,0,1.3,0c0.7,0.1,0.9-0.2,1-0.9c0.3-7.2,2.1-14,5.3-20.3c5.6-11.1,14.3-19,25.8-23.8
		c5.2-2.2,10.7-3.3,16.4-3.6c0.6,0,0.7-0.2,0.7-0.7c0-0.9,0-1.7,0-2.6c0-0.6-0.2-0.7-0.7-0.7c-6.1,0.3-11.9,1.5-17.6,3.8
		c-10.4,4.2-18.9,11-25.1,20.4c-5.3,8-8.3,16.8-9,26.4C294.2,94.9,294.3,94.9,296.4,94.9z M402.7,92.6c0-0.5-0.1-1.2-0.2-1.9
		c-0.1-0.9-0.2-1.8-0.4-2.6c-3.6-19.4-14.3-33.2-32.2-41.4c-6-2.8-12.4-4.1-19-4.4c-0.5,0-0.7,0.1-0.7,0.6c0,0.9,0,1.8,0,2.6
		c0,0.5,0.1,0.7,0.7,0.7c6.7,0.3,13.2,1.8,19.2,4.8c17.2,8.7,26.7,22.8,28.5,42c0.2,1.9,0.1,1.9,2.1,1.9
		C402.9,94.9,402.9,94.9,402.7,92.6z"/>
	<path class="st5" d="M317.1,82.8c0-3,0-6,0-9.1c0-1.5,0.6-2.1,2.1-2.1c6,0,12.1,0,18.1,0c1.5,0,2.1,0.7,2.1,2.1c0,6,0,12.1,0,18.1
		c0,1.4-0.6,2.1-2,2.1c-6.1,0-12.2,0-18.3,0c-1.4,0-2-0.7-2-2.1C317.1,88.8,317.1,85.8,317.1,82.8z M328.3,90.5c2.3,0,4.7,0,7,0
		c0.5,0,0.7-0.1,0.7-0.6c0-4.7,0-9.4,0-14.1c0-0.5-0.2-0.7-0.7-0.7c-4.7,0-9.4,0-14,0c-0.5,0-0.7,0.2-0.7,0.7c0,4.7,0,9.4,0,14
		c0,0.6,0.2,0.7,0.7,0.7C323.6,90.5,326,90.5,328.3,90.5z"/>
	<path class="st5" d="M362.2,83.8c-6.2,0-11.2-5-11.2-11.2c0-6.1,5-11.2,11.2-11.2c6.2,0,11.2,5,11.1,11.2
		C373.4,78.8,368.4,83.8,362.2,83.8z M362.2,65c-4.3,0-7.7,3.4-7.7,7.7c0,4.2,3.4,7.7,7.7,7.7c4.3,0,7.7-3.4,7.7-7.7
		C369.9,68.4,366.5,65,362.2,65z"/>
	<path class="st5" d="M382.8,95.1c0,4.5-3.7,8.2-8.3,8.2c-4.6,0-8.2-3.7-8.2-8.2c0-4.5,3.7-8.2,8.3-8.2
		C379.2,86.9,382.8,90.6,382.8,95.1z M379.4,95.1c0-2.6-2.1-4.7-4.8-4.7c-2.7,0-4.8,2.1-4.8,4.8c0,2.6,2.2,4.7,4.8,4.7
		C377.3,99.8,379.4,97.7,379.4,95.1z"/>
	<path class="st5" d="M339.2,132.9c-4.5,0-8.2-3.7-8.2-8.2c0-4.5,3.7-8.2,8.3-8.1c4.6,0,8.2,3.6,8.1,8.2
		C347.4,129.3,343.7,132.9,339.2,132.9z M339.1,129.5c2.6,0.1,4.8-2,4.9-4.6c0.1-2.6-2-4.8-4.7-4.9c-2.5-0.1-4.8,2.1-4.8,4.6
		C334.4,127.2,336.4,129.4,339.1,129.5z"/>
</g>
<title>иллюстрации на сайт</title>
<path class="st3" d="M395.6,267.1c0,10.5-8.6,19.1-19.1,19.1s-19.1-8.6-19.1-19.1c0-10.5,8.6-19.1,19.1-19.1
	S395.6,256.5,395.6,267.1L395.6,267.1"/>
<path class="st5" d="M101.7,32c0,10.5-8.6,19.1-19.1,19.1S63.5,42.6,63.5,32c0-10.5,8.6-19.1,19.1-19.1S101.7,21.5,101.7,32
	L101.7,32"/>
</svg>
