<svg width="341" height="303" viewBox="0 0 341 303" fill="none" xmlns="http://www.w3.org/2000/svg">
<mask id="mask0" mask-type="alpha" maskUnits="userSpaceOnUse" x="0" y="0" width="341" height="303">
<path d="M0.00146484 20C0.00146484 8.95431 8.95577 0 20.0015 0H320.001C331.047 0 340.001 8.95431 340.001 20V303H0.00146484V20Z" fill="#F2F2EB"/>
</mask>
<g mask="url(#mask0)">
<path d="M0.00146484 20C0.00146484 8.95431 8.95577 0 20.0015 0H320.001C331.047 0 340.001 8.95431 340.001 20V303H0.00146484V20Z" fill="#F2F2EB"/>
<path d="M231.033 214C226.24 213.993 221.645 212.086 218.256 208.697C214.867 205.307 212.959 200.713 212.952 195.92V171.08H188.08C183.285 171.08 178.686 169.176 175.296 165.785C171.905 162.394 170 157.795 170 153C170 148.205 171.905 143.606 175.296 140.215C178.686 136.824 183.285 134.92 188.08 134.92H212.92V110.08C212.92 105.285 214.824 100.686 218.215 97.2956C221.606 93.9049 226.205 92 231 92C235.795 92 240.394 93.9049 243.785 97.2956C247.176 100.686 249.08 105.285 249.08 110.08V134.92H273.92C278.715 134.92 283.314 136.824 286.704 140.215C290.095 143.606 292 148.205 292 153C292 157.795 290.095 162.394 286.704 165.785C283.314 169.176 278.715 171.08 273.92 171.08H249.08V195.92C249.075 200.708 247.173 205.298 243.791 208.687C240.408 212.076 235.821 213.986 231.033 214V214Z" fill="#C4E8E5"/>
<path d="M313.984 84.9921C313.984 87.7595 313.164 90.4647 311.626 92.7657C310.089 95.0666 307.903 96.86 305.347 97.9191C302.79 98.9781 299.977 99.2552 297.262 98.7153C294.548 98.1754 292.055 96.8428 290.098 94.886C288.141 92.9291 286.809 90.436 286.269 87.7218C285.729 85.0076 286.006 82.1943 287.065 79.6375C288.124 77.0808 289.918 74.8956 292.218 73.3581C294.519 71.8206 297.225 71 299.992 71C303.703 71 307.262 72.4742 309.886 75.0982C312.51 77.7222 313.984 81.2811 313.984 84.9921" fill="#0A45B8"/>
<path d="M97.4806 42.2679C97.4785 49.7623 94.5026 56.9492 89.2071 62.2485C83.9116 67.5479 76.73 70.526 69.241 70.528C61.7514 70.528 54.5686 67.5506 49.2726 62.2508C43.9767 56.951 41.0015 49.763 41.0015 42.2679C41.0004 38.5561 41.7301 34.8804 43.1488 31.4508C44.5675 28.0213 46.6475 24.905 49.2699 22.28C51.8923 19.6549 55.0057 17.5726 58.4324 16.1519C61.8591 14.7312 65.5319 14 69.241 14C76.7313 14.0021 83.9141 16.9812 89.2099 22.2822C94.5056 27.5833 97.4806 34.7722 97.4806 42.2679" stroke="#C4E8E5" stroke-width="14.49" stroke-miterlimit="10"/>
<path d="M320.709 158H231.482C227.35 158 224 161.35 224 165.482V218.455C224 222.588 227.35 225.937 231.482 225.937H320.709C324.842 225.937 328.191 222.588 328.191 218.455V165.482C328.191 161.35 324.842 158 320.709 158Z" stroke="#0A45B8" stroke-width="3.96" stroke-linecap="round" stroke-linejoin="round"/>
<path fill-rule="evenodd" clip-rule="evenodd" d="M295.671 241.246L288.196 225.937H264.001L256.525 241.246H295.671Z" stroke="#0A45B8" stroke-width="3.96" stroke-linecap="round" stroke-linejoin="round"/>
<path d="M239.576 241.246H312.621" stroke="#0A45B8" stroke-width="3.96" stroke-linecap="round" stroke-linejoin="round"/>
<path d="M224.006 191.969H252.465L262.941 207.679L279.858 171.432L285.764 192.639H297.848" stroke="#0A45B8" stroke-width="3.96" stroke-linecap="round" stroke-linejoin="round"/>
<path d="M304.565 198.282C308.126 198.282 311.013 195.396 311.013 191.835C311.013 188.274 308.126 185.387 304.565 185.387C301.004 185.387 298.117 188.274 298.117 191.835C298.117 195.396 301.004 198.282 304.565 198.282Z" stroke="#0A45B8" stroke-width="3.96" stroke-linecap="round" stroke-linejoin="round"/>
<path d="M116.8 215.208C121.281 215.207 125.719 216.09 129.859 217.805C134 219.521 137.762 222.036 140.93 225.208C144.099 228.379 146.613 232.143 148.327 236.287C150.042 240.43 150.924 244.871 150.923 249.356V269.565H163.107C166.894 269.565 170.525 271.07 173.202 273.749C175.879 276.428 177.383 280.062 177.383 283.851H107.401L105.577 282.026C88.2379 264.67 78.4963 241.133 78.4946 216.591C78.4965 197.554 86.055 179.297 99.5074 165.836C112.96 152.375 131.204 144.813 150.228 144.813L150.952 80L164.699 94.6337C173.593 91.48 183.3 91.48 192.194 94.6337L205.942 80L204.299 145.986L193.142 188.707C187.466 210.462 187.95 233.369 194.539 254.866L199.669 271.629C202.254 271.629 204.734 272.656 206.563 274.485C208.392 276.314 209.42 278.795 209.422 281.382V284.199H190.226" stroke="#EFB9D5" stroke-width="7.2" stroke-linecap="round" stroke-linejoin="round"/>
<path d="M84.5511 181.502C80.9333 203.369 75.0291 208.293 68.0974 220.067C63.3798 228.032 58.0472 236.489 58.9154 247.169C60.5145 266.915 77.2793 267.929 88.1254 267.675" stroke="#EFB9D5" stroke-width="7.2" stroke-linecap="round" stroke-linejoin="round"/>
<path d="M105.722 283.779C102.024 283.779 90.5777 284.199 80.7735 284.039C70.0577 284.039 58.7774 279.13 51.8313 273.019C44.4148 266.502 40.6596 257.046 41.2674 246.402C42.1211 231.377 47.1354 221.971 53.6112 212.471" stroke="#EFB9D5" stroke-width="7.2" stroke-linecap="round" stroke-linejoin="round"/>
<path d="M83.6391 187.172C88.0962 161.865 74.9564 144.581 55.8979 140.555C45.995 138.46 35.6659 140.386 27.1825 145.912C18.6992 151.437 12.7563 160.108 10.6611 170.018C8.98741 177.944 10.5284 186.211 14.9451 193.001C19.3618 199.79 26.2926 204.546 34.2129 206.222C40.5451 207.561 47.1496 206.331 52.576 202.801C58.0025 199.271 61.8074 193.731 63.1552 187.396C63.6857 184.884 63.7164 182.292 63.2457 179.767C62.775 177.243 61.812 174.837 60.4117 172.685C59.0115 170.533 57.2014 168.679 55.0849 167.227C52.9683 165.776 50.5868 164.756 48.0763 164.225C44.0198 163.374 39.7916 164.169 36.32 166.434C32.8485 168.7 30.4173 172.252 29.5604 176.31C28.8815 179.557 29.5182 182.942 31.3307 185.719C33.1431 188.497 35.9832 190.441 39.2272 191.125" stroke="#EFB9D5" stroke-width="7.2" stroke-linecap="round" stroke-linejoin="round"/>
</g>
</svg>
