<?xml version="1.0" encoding="utf-8"?>
<!-- Generator: Adobe Illustrator 22.0.1, SVG Export Plug-In . SVG Version: 6.00 Build 0)  -->
<svg version="1.1" xmlns="http://www.w3.org/2000/svg" xmlns:xlink="http://www.w3.org/1999/xlink" x="0px" y="0px"
	 viewBox="0 0 435 303" style="enable-background:new 0 0 435 303;" xml:space="preserve">
<style type="text/css">
	.st0{clip-path:url(#SVGID_2_);}
	.st1{fill:#F2F2EB;}
	.st2{fill:none;stroke:#C4E8E5;stroke-width:3.95;stroke-linecap:round;stroke-linejoin:round;}
	.st3{fill:#C3E7E4;}
	.st4{fill:#0040BE;}
	.st5{fill:none;stroke:#0040BE;stroke-width:16;stroke-miterlimit:10;}
	.st6{fill:none;stroke:#C3E7E4;stroke-width:80;stroke-miterlimit:10;}
	.st7{fill:none;stroke:#DEAFC9;stroke-width:10;stroke-miterlimit:10;}
	.st8{fill:#C4E8E5;}
	.st9{fill:none;stroke:#EFB9D5;stroke-width:6.82;stroke-linecap:round;stroke-linejoin:round;}
</style>
<g id="Слой_1">
</g>
<g id="Layer_2">
	<g>
		<defs>
			<rect id="SVGID_1_" x="-0.4" width="435.1" height="303"/>
		</defs>
		<clipPath id="SVGID_2_">
			<use xlink:href="#SVGID_1_"  style="overflow:visible;"/>
		</clipPath>
		<g class="st0">
			<g>
				<rect x="-0.4" y="-42.3" class="st1" width="435.1" height="388.3"/>
				<circle class="st2" cx="330.9" cy="49" r="10"/>
				<path class="st2" d="M290.6,39c16.8,27.8,52.9,36.7,80.6,20C354.5,31.2,318.4,22.3,290.6,39z"/>
				<line class="st2" x1="336.9" y1="24.8" x2="340.4" y2="10.7"/>
				<line class="st2" x1="347.5" y1="29.6" x2="355.7" y2="17.6"/>
				<line class="st2" x1="323.8" y1="9.6" x2="325.3" y2="24.1"/>
			</g>
			<path class="st3" d="M419.8,286.2h-9.2c-17.9,0-32.6-14.7-32.6-32.6V62.2c0-17.9,14.7-32.6,32.6-32.6h9.2
				c17.9,0,32.6,14.7,32.6,32.6v191.4C452.3,271.6,437.7,286.2,419.8,286.2z"/>
			<path class="st3" d="M280.6,167.8v-9.2c0-17.9,14.7-32.6,32.6-32.6h204c17.9,0,32.6,14.7,32.6,32.6v9.2
				c0,17.9-14.7,32.6-32.6,32.6h-204C295.2,200.4,280.6,185.8,280.6,167.8z"/>
			<g id="XXtOna.tif">
				<g>
					<path class="st4" d="M346.5,281.3c-10.4,3.4-22.9,4.3-35.6,2.3c-8.4-1.3-16.4-3.9-24.1-7.4c-4.7-2.1-9.1-4.6-13.4-7.4
						c-1.1-0.7-1.4-1.5-0.9-2.7c4.7-12.6,11.4-24,20.8-33.7c7-7.2,15-13,24.1-17.3c1.8-0.9,3.7-1.7,5.6-2.3c1.8-0.6,3.5-1.4,5.3-1.9
						c13.8-3.7,27.6-4,41.5-0.6c11.1,2.7,21.3,7.3,30.8,13.5c1.1,0.7,1.4,1.5,0.9,2.7c-6.2,16.6-15.7,30.8-29.8,41.8
						C364.6,273.8,356.8,277.9,346.5,281.3z M361.7,236.9c0-0.3-0.1-0.5-0.1-0.8c-1.9-10.7-10.5-19.5-21.2-21.5
						c-3.3-0.6-6.6-0.8-9.9-0.1c-3.7,0.9-7.3,2.2-10.8,3.8c-9.7,4.4-18,10.6-25.2,18.4c-7.7,8.5-13.5,18.2-17.7,28.8
						c-0.2,0.5-0.1,0.7,0.3,1c4.7,2.9,9.6,5.5,14.7,7.6c5.7,2.3,11.5,4.1,17.6,5.2c11.4,2.1,22.7,1.8,33.9-1.3
						c9.4-2.5,17.9-6.8,25.6-12.7c8.7-6.6,15.6-14.8,21.2-24.2c2.7-4.5,5-9.3,6.9-14.2c0.2-0.5,0.1-0.7-0.4-1
						c-6.3-3.9-12.8-7.1-19.8-9.5c-9.6-3.3-19.5-4.9-29.6-4.6c-0.4,0-0.7,0-1.1,0.2c0.1,0.1,0.2,0.1,0.3,0.1
						c7.9,3.2,13.6,8.7,17,16.5c3,7,3.3,14.1,1,21.4c-1.9,5.9-5.3,10.9-10.2,14.8c-7.2,5.6-15.5,7.9-24.6,6.2
						c-11.7-2.2-19.7-9.2-23.8-20.4c-0.4-1.2,0.1-2.3,1.2-2.7c1.1-0.4,2.2,0.2,2.6,1.4C312,256,316,261,322,264.3
						c8.1,4.5,16.4,4.6,24.8,0.8c0.4-0.2,0.5-0.3,0.2-0.7c-2.3-3.6-4.7-7.3-7-11c-0.2-0.4-0.4-0.5-0.9-0.2c-3,1.6-6,3.1-9,4.7
						c-2.7,1.4-5.6,1.1-7.9-1c-1.2-1.1-2.4-2.2-3.7-3.1c-0.5-0.3-0.5-0.6-0.1-1.1c2.5-3.5,4.9-7.1,7.4-10.6c0.2-0.3,0.4-0.5,0.2-0.9
						c-1.4-4.8,0.6-9.2,5.2-11.2c0.4-0.2,0.5-0.3,0.4-0.7c-0.6-2.8-1.1-5.6-1.7-8.4c-0.1-0.5-0.3-1.1-0.3-1.7
						c0.3,0.3,0.6,0.5,0.8,0.7c2.7,2.5,5.4,4.9,8.1,7.4c0.3,0.3,0.7,0.5,1.1,0.7c5.4,2.2,10.7,4.4,16.1,6.6
						C357.7,235.3,359.6,236.1,361.7,236.9z"/>
				</g>
			</g>
			<circle class="st5" cx="101.1" cy="7.6" r="42.6"/>
			<circle class="st6" cx="565.2" cy="18.5" r="65"/>
			<path class="st7" d="M673.2,133.9"/>
			<path class="st8" d="M248.2,200.4c0,10.5-8.5,19-19,19s-19-8.5-19-19s8.5-19,19-19S248.2,189.9,248.2,200.4"/>
		</g>
		<g class="st0">
			<path class="st9" d="M-7.4,156.4l2,48.6l-5.2,60.4C-12,282.7-7,299.9,3.5,313.7h28.4V311c0-7.7-6.2-13.9-13.9-13.9l0,0
				c-6.4-8.3-9.1-19-7.4-29.4l1.5-8.8l1.6-1.1c20.6-14.1,32.9-37.4,32.9-62.4v-8.2l25.8,13.6c20.9,11,53,14.7,76.3,10.7l0,0v65.9
				c0,7,1.3,14,3.9,20.6l6.2,15.8H191c0-8.3-6.7-15-15-15l0,0c-4.9-10.8-6.2-22.8-3.8-34.4l6.1-49.1l27.4-28.4
				c5.4-5.6,9.3-12.6,11.2-20.2l9.1-36.3l30.6,5.1c7.4,1,14.7-2.7,18.4-9.2l4.1-7.4l4.3-6.4l-31.8-24V87c0-13.8-11.2-25-25-25l0,0
				L223,31.7L205.3,63l-58,49.7l-126,10.1"/>
			<path class="st9" d="M32.8,240.9l23.4,70.4h30.5c0-8.9-4.7-16-13.6-16h-2.4l-5.5-36.1l7.8-11.5c6.8-10.1,10.3-19.8,12-31.7"/>
			<path class="st9" d="M185.1,238.2l18.6,20.1l-3.3,6.6c-4.2,8.4-3.8,18.4,1.2,26.3l0,0l15.7-23.3c5.5-8.2,5.4-19-0.4-27.1
				l-24.1-39.1"/>
			<path class="st9" d="M-12.9,153.9c-18.9-1.8-10.9-27.9-18.5-46.7c-8.8-21.6,1.5-46.3,23.1-55.1c0,0,0,0,0,0
				c17.3-7,37,1.3,44.1,18.6c5.6,13.8-1,29.6-14.8,35.2c0,0,0,0,0,0C9.9,110.4-2.7,105.1-7.2,94c-3.6-8.9,0.6-19,9.5-22.6
				c0,0,0,0,0,0c7.1-2.9,15.1,0.5,18,7.6"/>
		</g>
	</g>
</g>
</svg>
