<svg width="340" height="303" viewBox="0 0 340 303" fill="none" xmlns="http://www.w3.org/2000/svg">
<mask id="mask0" mask-type="alpha" maskUnits="userSpaceOnUse" x="0" y="0" width="340" height="303">
<path d="M0 20C0 8.95431 8.95431 0 20 0H320C331.046 0 340 8.95431 340 20V303H0V20Z" fill="#F2F2EB"/>
</mask>
<g mask="url(#mask0)">
<path d="M0 20C0 8.95431 8.95431 0 20 0H320C331.046 0 340 8.95431 340 20V303H0V20Z" fill="#F2F2EB"/>
<path d="M326 195.5C326 210.63 321.513 225.421 313.107 238.001C304.701 250.581 292.754 260.387 278.775 266.177C264.797 271.967 249.415 273.482 234.576 270.53C219.736 267.578 206.105 260.292 195.406 249.594C184.708 238.895 177.422 225.264 174.47 210.424C171.518 195.585 173.033 180.203 178.823 166.225C184.613 152.246 194.419 140.298 206.999 131.893C219.579 123.487 234.37 119 249.5 119C269.789 119 289.247 127.06 303.594 141.406C317.94 155.753 326 175.211 326 195.5" fill="#C4E8E5"/>
<path d="M305 61C305 64.1645 304.062 67.2579 302.303 69.8891C300.545 72.5203 298.046 74.5711 295.123 75.7821C292.199 76.9931 288.982 77.3099 285.879 76.6926C282.775 76.0752 279.924 74.5513 277.686 72.3137C275.449 70.0761 273.925 67.2251 273.307 64.1214C272.69 61.0177 273.007 57.8007 274.218 54.8771C275.429 51.9534 277.48 49.4546 280.111 47.6965C282.742 45.9384 285.835 45 289 45C291.105 45 293.189 45.4152 295.133 46.2219C297.077 47.0286 298.842 48.211 300.329 49.7012C301.815 51.1914 302.993 52.9602 303.794 54.9062C304.596 56.8523 305.005 58.9374 305 61.0421" fill="#0A45B8"/>
<path d="M113.479 41.2679C113.477 48.7623 110.501 55.9492 105.206 61.2485C99.9101 66.5479 92.7285 69.526 85.2395 69.528C77.7499 69.528 70.5671 66.5506 65.2712 61.2508C59.9752 55.951 57 48.763 57 41.2679C56.999 37.5561 57.7287 33.8804 59.1474 30.4508C60.5661 27.0213 62.646 23.905 65.2684 21.28C67.8908 18.6549 71.0042 16.5726 74.4309 15.1519C77.8576 13.7312 81.5304 13 85.2395 13C92.7299 13.0021 99.9127 15.9812 105.208 21.2822C110.504 26.5833 113.479 33.7722 113.479 41.2679" stroke="#C4E8E5" stroke-width="14.49" stroke-miterlimit="10"/>
<path d="M29.6182 171.078L31.0609 206.14L27.317 249.757C26.2493 262.221 29.863 274.635 37.4522 284.574H57.9103V282.64C57.9103 279.981 56.8571 277.432 54.9815 275.549C53.106 273.667 50.5611 272.606 47.9049 272.598C45.6158 269.619 43.9627 266.201 43.0482 262.557C42.1337 258.912 41.9772 255.118 42.5884 251.41L43.6416 245.029L44.8174 244.22C52.1358 239.212 58.123 232.494 62.26 224.646C66.3969 216.799 68.5586 208.061 68.5577 199.189V193.262L87.1979 203.043C102.274 210.984 125.43 213.67 142.231 210.782V258.326C142.233 263.415 143.195 268.458 145.066 273.19L149.539 284.574H172.702C172.702 281.702 171.562 278.948 169.533 276.917C167.503 274.887 164.751 273.746 161.881 273.746C158.367 265.964 157.41 257.267 159.147 248.905L163.555 213.475L183.291 192.973C187.214 188.9 190.002 183.87 191.378 178.384L197.95 152.179L220.031 155.839C222.654 156.184 225.321 155.734 227.686 154.546C230.051 153.358 232.006 151.487 233.297 149.176L236.276 143.863L239.407 139.235L216.489 121.91V120.964C216.489 116.178 214.589 111.587 211.207 108.203C207.825 104.818 203.238 102.917 198.455 102.917L195.786 81L183.053 103.617L141.214 139.51L50.3215 146.808" stroke="#EFB9D5" stroke-width="6.82" stroke-linecap="round" stroke-linejoin="round"/>
<path d="M58.5884 232.071L75.4396 282.863H97.4485C97.4485 276.467 94.0365 271.277 87.6379 271.277H85.8994L81.9319 245.195L87.5297 236.929C92.435 229.652 94.931 222.643 96.1862 214.031" stroke="#EFB9D5" stroke-width="6.82" stroke-linecap="round" stroke-linejoin="round"/>
<path d="M168.453 230.115L181.892 244.654L179.49 249.389C177.983 252.365 177.269 255.679 177.419 259.012C177.568 262.345 178.574 265.582 180.341 268.411L191.652 251.62C193.604 248.72 194.626 245.294 194.581 241.799C194.535 238.303 193.426 234.904 191.4 232.056L174.037 203.794" stroke="#EFB9D5" stroke-width="6.82" stroke-linecap="round" stroke-linejoin="round"/>
<path d="M29.7193 171C16.0782 169.686 17.795 149.111 12.2621 135.532C10.7487 131.823 9.98019 127.852 10.0004 123.846C10.0206 119.839 10.8291 115.876 12.3798 112.183C13.9306 108.489 16.1931 105.137 19.0382 102.319C21.8834 99.5001 25.2554 97.27 28.9618 95.7556C34.954 93.3127 41.6704 93.3519 47.6336 95.8645C53.5969 98.3772 58.3185 103.158 60.7598 109.154C61.7291 111.526 62.2214 114.066 62.2085 116.629C62.1957 119.192 61.6779 121.727 60.685 124.089C59.692 126.451 58.2432 128.594 56.4216 130.395C54.6 132.197 52.4413 133.621 50.0691 134.586C46.2369 136.152 41.9404 136.13 38.1243 134.526C34.3082 132.921 31.2849 129.866 29.7193 126.032C29.0995 124.512 28.7849 122.885 28.7935 121.244C28.8021 119.603 29.1337 117.979 29.7694 116.466C30.4052 114.953 31.3325 113.58 32.4985 112.426C33.6645 111.272 35.0464 110.358 36.5651 109.739C39.0137 108.749 41.754 108.77 44.1871 109.797C46.6202 110.824 48.5482 112.773 49.5497 115.218" stroke="#EFB9D5" stroke-width="6.82" stroke-linecap="round" stroke-linejoin="round"/>
<path d="M295.811 220.69C295.811 220.69 293.991 227.167 297.285 231.227C299.469 233.869 302.352 235.843 305.604 236.924" stroke="#0A45B8" stroke-width="2.91814" stroke-linecap="round" stroke-linejoin="round"/>
<path d="M256.755 245.781L291.256 259.539C296.124 261.477 301.541 261.524 306.442 259.671C311.343 257.818 315.373 254.199 317.741 249.525C317.854 249.421 317.943 249.292 317.999 249.149L318.551 247.763C323.481 234.764 326.517 217.16 303.032 207.794C293.592 204.028 291.861 202.193 289.687 199.835L289.576 199.725C287.108 197.064 284.882 194.891 282.664 195.303C281.338 195.554 280.299 196.652 279.466 198.752C278.28 201.7 279.083 206.467 282.075 210.697L255.192 199.983C254.12 199.559 252.949 199.448 251.816 199.665C250.683 199.881 249.635 200.415 248.795 201.205C247.954 201.995 247.356 203.007 247.069 204.124C246.782 205.241 246.819 206.417 247.175 207.514C245.681 207.041 244.061 207.164 242.655 207.856C241.25 208.549 240.165 209.758 239.629 211.23C239.093 212.703 239.146 214.326 239.778 215.76C240.409 217.195 241.57 218.33 243.019 218.928L244.014 219.319C243.005 219.875 242.174 220.706 241.62 221.716C241.065 222.726 240.808 223.872 240.88 225.022C240.952 226.172 241.349 227.278 242.025 228.211C242.701 229.144 243.629 229.865 244.699 230.291L256.077 234.831C255.377 235.216 254.761 235.736 254.263 236.36C253.764 236.984 253.394 237.7 253.173 238.467C252.952 239.235 252.884 240.038 252.974 240.832C253.064 241.625 253.309 242.393 253.696 243.091C254.371 244.328 255.459 245.288 256.769 245.803L256.755 245.781Z" stroke="#0A45B8" stroke-width="2.91814" stroke-linecap="round" stroke-linejoin="round"/>
<path d="M256.099 234.831L276.901 243.128" stroke="#0A45B8" stroke-width="2.91814" stroke-linecap="round" stroke-linejoin="round"/>
<path d="M243.874 219.275L276.828 232.414" stroke="#0A45B8" stroke-width="2.91814" stroke-linecap="round" stroke-linejoin="round"/>
<path d="M247.197 207.514L281.315 221.161" stroke="#0A45B8" stroke-width="2.91814" stroke-linecap="round" stroke-linejoin="round"/>
<path d="M282.053 210.697C282.053 210.697 288.022 216.423 292.48 217.329" stroke="#0A45B8" stroke-width="2.91814" stroke-linecap="round" stroke-linejoin="round"/>
<path d="M295.022 155.223H275.862C272.334 155.223 269.473 158.083 269.473 161.612V180.771C269.473 184.3 272.334 187.16 275.862 187.16H295.022C298.55 187.16 301.411 184.3 301.411 180.771V161.612C301.411 158.083 298.55 155.223 295.022 155.223Z" stroke="#0A45B8" stroke-width="2.91814" stroke-linecap="round" stroke-linejoin="round"/>
<path d="M285.442 177.323V165.053" stroke="#0A45B8" stroke-width="2.91814" stroke-linecap="round" stroke-linejoin="round"/>
<path d="M279.304 171.192H291.581" stroke="#0A45B8" stroke-width="2.91814" stroke-linecap="round" stroke-linejoin="round"/>
<path d="M297.571 145.002H273.305V150.227H297.571V145.002Z" stroke="#0A45B8" stroke-width="2.91814" stroke-linecap="round" stroke-linejoin="round"/>
</g>
</svg>
