<svg width="340" height="303" viewBox="0 0 340 303" fill="none" xmlns="http://www.w3.org/2000/svg">
<mask id="mask0" mask-type="alpha" maskUnits="userSpaceOnUse" x="0" y="0" width="340" height="303">
<path d="M0 20C0 8.95431 8.95431 0 20 0H320C331.046 0 340 8.95431 340 20V303H0V20Z" fill="#F2F2EB"/>
</mask>
<g mask="url(#mask0)">
<path d="M0 20C0 8.95431 8.95431 0 20 0H320C331.046 0 340 8.95431 340 20V303H0V20Z" fill="#F2F2EB"/>
<path d="M255.003 234C248.765 233.993 242.786 231.513 238.375 227.105C233.965 222.697 231.484 216.72 231.476 210.487V178.196H199.162C192.986 178.1 187.096 175.581 182.762 171.182C178.429 166.784 176 160.858 176 154.685C176 148.512 178.429 142.587 182.762 138.188C187.096 133.789 192.986 131.27 199.162 131.175H231.476V98.8782C231.428 95.7601 232 92.6635 233.161 89.7686C234.321 86.8738 236.046 84.2386 238.236 82.0164C240.425 79.7942 243.034 78.0295 245.912 76.8249C248.791 75.6203 251.88 75 255 75C258.12 75 261.209 75.6203 264.087 76.8249C266.966 78.0295 269.575 79.7942 271.764 82.0164C273.954 84.2386 275.679 86.8738 276.839 89.7686C278 92.6635 278.572 95.7601 278.524 98.8782V131.175H310.838C317.014 131.27 322.904 133.789 327.238 138.188C331.571 142.587 334 148.512 334 154.685C334 160.858 331.571 166.784 327.238 171.182C322.904 175.581 317.014 178.1 310.838 178.196H278.524V210.487C278.516 216.719 276.036 222.695 271.627 227.103C267.217 231.511 261.239 233.991 255.003 234V234Z" fill="#0A45B8"/>
<path d="M290.889 79.9552C290.889 82.9134 290.012 85.8052 288.37 88.2648C286.727 90.7243 284.393 92.6411 281.661 93.7728C278.93 94.9045 275.925 95.2002 273.026 94.6226C270.127 94.0449 267.464 92.6197 265.374 90.5274C263.285 88.4351 261.862 85.7696 261.286 82.8681C260.71 79.9665 261.008 76.9593 262.14 74.2267C263.272 71.4941 265.189 69.159 267.647 67.5166C270.106 65.8743 272.996 64.9985 275.952 65C279.914 65.0021 283.713 66.5786 286.514 69.3831C289.315 72.1875 290.889 75.9902 290.889 79.9552" fill="#C4E8E5"/>
<path d="M246.734 269.872C246.736 273.21 245.748 276.475 243.895 279.251C242.043 282.028 239.409 284.193 236.327 285.472C233.245 286.75 229.854 287.086 226.581 286.435C223.309 285.785 220.303 284.178 217.943 281.818C215.583 279.457 213.976 276.45 213.325 273.175C212.673 269.901 213.007 266.507 214.283 263.422C215.56 260.337 217.721 257.7 220.495 255.845C223.269 253.99 226.531 253 229.867 253C234.339 253 238.628 254.777 241.791 257.941C244.954 261.105 246.732 265.396 246.734 269.872" fill="#C4E8E5"/>
<path d="M29.6182 171.078L31.0609 206.14L27.317 249.757C26.2493 262.221 29.863 274.635 37.4522 284.574H57.9103V282.64C57.9103 279.981 56.8571 277.432 54.9815 275.549C53.106 273.667 50.5611 272.606 47.9049 272.598C45.6158 269.619 43.9627 266.201 43.0482 262.557C42.1337 258.912 41.9772 255.118 42.5884 251.41L43.6416 245.029L44.8174 244.22C52.1358 239.212 58.123 232.494 62.26 224.646C66.3969 216.799 68.5586 208.061 68.5577 199.189V193.262L87.1979 203.043C102.274 210.984 125.43 213.67 142.231 210.782V258.326C142.233 263.415 143.195 268.458 145.066 273.19L149.539 284.574H172.702C172.702 281.702 171.562 278.948 169.533 276.917C167.503 274.887 164.751 273.746 161.881 273.746C158.367 265.964 157.41 257.267 159.147 248.905L163.555 213.475L183.291 192.973C187.214 188.9 190.002 183.87 191.378 178.384L197.95 152.179L220.031 155.839C222.654 156.184 225.321 155.734 227.686 154.546C230.051 153.358 232.006 151.487 233.297 149.176L236.276 143.863L239.407 139.235L216.489 121.91V120.964C216.489 116.178 214.589 111.587 211.207 108.203C207.825 104.818 203.238 102.917 198.455 102.917L195.786 81L183.053 103.617L141.214 139.51L50.3215 146.808" stroke="#EFB9D5" stroke-width="6.82" stroke-linecap="round" stroke-linejoin="round"/>
<path d="M58.5884 232.071L75.4396 282.863H97.4485C97.4485 276.467 94.0365 271.277 87.6379 271.277H85.8994L81.9319 245.195L87.5297 236.929C92.435 229.652 94.931 222.643 96.1862 214.031" stroke="#EFB9D5" stroke-width="6.82" stroke-linecap="round" stroke-linejoin="round"/>
<path d="M168.453 230.115L181.892 244.654L179.49 249.389C177.983 252.365 177.269 255.679 177.419 259.012C177.568 262.345 178.574 265.582 180.341 268.411L191.652 251.62C193.604 248.72 194.626 245.294 194.581 241.799C194.535 238.303 193.426 234.904 191.4 232.056L174.037 203.794" stroke="#EFB9D5" stroke-width="6.82" stroke-linecap="round" stroke-linejoin="round"/>
<path d="M29.7193 171C16.0782 169.686 17.795 149.111 12.2621 135.532C10.7487 131.823 9.98019 127.852 10.0004 123.846C10.0206 119.839 10.8291 115.876 12.3798 112.183C13.9306 108.489 16.1931 105.137 19.0382 102.319C21.8834 99.5001 25.2554 97.27 28.9618 95.7556C34.954 93.3127 41.6704 93.3519 47.6336 95.8645C53.5969 98.3772 58.3185 103.158 60.7598 109.154C61.7291 111.526 62.2214 114.066 62.2085 116.629C62.1957 119.192 61.6779 121.727 60.685 124.089C59.692 126.451 58.2432 128.594 56.4216 130.395C54.6 132.197 52.4413 133.621 50.0691 134.586C46.2369 136.152 41.9404 136.13 38.1243 134.526C34.3082 132.921 31.2849 129.866 29.7193 126.032C29.0995 124.512 28.7849 122.885 28.7935 121.244C28.8021 119.603 29.1337 117.979 29.7694 116.466C30.4052 114.953 31.3325 113.58 32.4985 112.426C33.6645 111.272 35.0464 110.358 36.5651 109.739C39.0137 108.749 41.754 108.77 44.1871 109.797C46.6202 110.824 48.5482 112.773 49.5497 115.218" stroke="#EFB9D5" stroke-width="6.82" stroke-linecap="round" stroke-linejoin="round"/>
<path d="M303.194 161.721V187.147C303.194 189.188 302.384 191.145 300.943 192.588C299.501 194.031 297.545 194.841 295.506 194.841H250.844C248.806 194.84 246.852 194.029 245.412 192.586C243.971 191.143 243.162 189.187 243.162 187.147V161.721" stroke="#C4E8E5" stroke-width="3.97" stroke-linecap="round" stroke-linejoin="round"/>
<path d="M273.176 136L234 169.066" stroke="#C4E8E5" stroke-width="3.97" stroke-linecap="round" stroke-linejoin="round"/>
<path d="M273.175 136L312.356 169.066" stroke="#C4E8E5" stroke-width="3.97" stroke-linecap="round" stroke-linejoin="round"/>
<path d="M281.282 169.834H275.992V164.539C275.992 163.792 275.695 163.075 275.167 162.546C274.639 162.018 273.922 161.721 273.175 161.721V161.721C272.806 161.721 272.44 161.794 272.098 161.935C271.757 162.077 271.447 162.285 271.186 162.547C270.925 162.808 270.718 163.119 270.577 163.461C270.436 163.803 270.364 164.169 270.364 164.539V169.834H265.068C264.322 169.835 263.607 170.133 263.08 170.661C262.553 171.189 262.257 171.905 262.257 172.652C262.257 173.398 262.553 174.114 263.081 174.641C263.608 175.169 264.323 175.465 265.068 175.465H270.364V180.765C270.364 181.135 270.436 181.501 270.577 181.842C270.718 182.184 270.925 182.494 271.186 182.756C271.447 183.017 271.757 183.224 272.099 183.365C272.44 183.506 272.806 183.579 273.175 183.578C273.545 183.579 273.911 183.507 274.253 183.365C274.594 183.224 274.905 183.017 275.167 182.756C275.428 182.495 275.636 182.184 275.777 181.843C275.919 181.501 275.992 181.135 275.992 180.765V175.465H281.282C281.652 175.466 282.018 175.394 282.36 175.253C282.701 175.112 283.012 174.904 283.274 174.643C283.535 174.382 283.743 174.072 283.884 173.73C284.026 173.388 284.099 173.022 284.099 172.652V172.652C284.099 171.905 283.802 171.188 283.274 170.659C282.746 170.13 282.029 169.834 281.282 169.834Z" fill="#C4E8E5"/>
<path d="M113.479 41.2679C113.477 48.7623 110.501 55.9492 105.206 61.2485C99.9101 66.5479 92.7285 69.526 85.2395 69.528C77.7499 69.528 70.5671 66.5506 65.2712 61.2508C59.9752 55.951 57 48.763 57 41.2679C56.999 37.5561 57.7287 33.8804 59.1474 30.4508C60.5661 27.0213 62.646 23.905 65.2684 21.28C67.8908 18.6549 71.0042 16.5726 74.4309 15.1519C77.8576 13.7312 81.5304 13 85.2395 13C92.7299 13.0021 99.9127 15.9812 105.208 21.2822C110.504 26.5833 113.479 33.7722 113.479 41.2679" stroke="#C4E8E5" stroke-width="14.49" stroke-miterlimit="10"/>
</g>
</svg>
