<?xml version="1.0" encoding="utf-8"?>
<!-- Generator: Adobe Illustrator 22.1.0, SVG Export Plug-In . SVG Version: 6.00 Build 0)  -->
<svg version="1.1" id="Слой_1" xmlns="http://www.w3.org/2000/svg" xmlns:xlink="http://www.w3.org/1999/xlink" x="0px" y="0px"
	 viewBox="0 0 435 303" style="enable-background:new 0 0 435 303;" xml:space="preserve">
<style type="text/css">
	.st0{clip-path:url(#SVGID_2_);fill:none;}
	.st1{clip-path:url(#SVGID_2_);fill:#F2F2EB;}
	.st2{clip-path:url(#SVGID_2_);fill:#C4E8E5;}
	.st3{clip-path:url(#SVGID_2_);fill:none;stroke:#C4E8E5;stroke-width:14.6652;stroke-miterlimit:10;}
	.st4{clip-path:url(#SVGID_2_);}
	.st5{fill:none;stroke:#EFB9D5;stroke-width:8.4436;stroke-linecap:round;stroke-linejoin:round;}
	.st6{clip-path:url(#SVGID_2_);fill:none;stroke:#EFB9D5;stroke-width:8.4436;stroke-linecap:round;stroke-linejoin:round;}
	.st7{fill:none;stroke:#0A45B8;stroke-width:3.9996;stroke-linecap:round;stroke-linejoin:round;}
	.st8{fill:#C4E8E5;stroke:#0A45B8;stroke-width:2.6825;stroke-miterlimit:10;}
	.st9{fill:#0A45B8;stroke:#0A45B8;stroke-width:2.6825;stroke-miterlimit:10;}
</style>
<title>иллюстрации на сайт</title>
<g>
	<defs>
		<rect id="SVGID_1_" width="435" height="303"/>
	</defs>
	<clipPath id="SVGID_2_">
		<use xlink:href="#SVGID_1_"  style="overflow:visible;"/>
	</clipPath>
	<rect x="-2.5" y="-71.5" class="st0" width="440" height="392.7"/>
	<rect x="-2.5" class="st1" width="440" height="303"/>
	<path class="st2" d="M343.9,204.2c0,67.9-55,122.9-122.9,122.9s-122.9-55-122.9-122.9S153.2,81.4,221,81.4S343.9,136.4,343.9,204.2
		"/>
	<path class="st3" d="M130.3,3.6c0,20.2-16.4,36.6-36.6,36.6S57.1,23.8,57.1,3.6s16.4-36.6,36.6-36.6c0,0,0,0,0,0
		C113.9-32.9,130.3-16.6,130.3,3.6"/>
	<g class="st4">
		<path class="st5" d="M306.4,291.4h-20.1v-2.9c0-5.6,4.6-10.2,10.2-10.2l0,0l5.4-17.5c6.9-22.5,7.4-46.4,1.5-69.1l-11.7-44.6
			L290,78.1l14.4,15.3l0,0c9.3-3.3,19.5-3.3,28.8,0l0,0l14.4-15.3l0.7,67.7l0,0c41.4,0,75,33.6,75,75l0,0
			c0,25.6-10.2,50.2-28.3,68.3L393,291h-73.1c0-8.2,6.7-14.9,14.9-14.9h12.7V255c0-19.7,16-35.7,35.7-35.7l0,0"/>
		<path class="st5" d="M413.1,274.2c11.3,0.3,28.9-0.8,30.5-21.4c0.9-11.2-4.7-19.9-9.6-28.3c-7.2-12.3-13.4-17.4-17.2-40.3"/>
		<path class="st5" d="M449.2,216.5c6.8,9.9,12,19.7,12.9,35.4c0.6,11.1-3.3,21-11,27.8c-7.3,6.4-19.1,11.5-30.3,11.5
			c-10.2,0.2-22.2-0.3-26.1-0.3"/>
		<path class="st5" d="M464.3,194.2c7.1-1.5,11.6-8.4,10.1-15.5c0,0,0,0,0,0c-1.9-8.8-10.5-14.5-19.4-12.6
			c-11,2.3-18.1,13.2-15.8,24.2c0,0,0,0,0,0c2.9,13.8,16.5,22.6,30.3,19.7c17.2-3.6,28.3-20.6,24.6-37.8
			c-4.6-21.6-25.7-35.3-47.3-30.8c-19.9,4.2-33.7,22.3-29,48.7"/>
	</g>
	<path class="st6" d="M-32.4,140.8l1.9,46.5l-5,57.9c-1.4,16.5,3.4,33,13.4,46.2l0,0H5.2v-2.6c0-7.4-6-13.3-13.3-13.3h0h0
		c-6.1-8-8.7-18.2-7.1-28.1l1.4-8.5l1.6-1.1c19.7-13.5,31.5-35.9,31.5-59.8v-7.9l24.7,13c20,10.5,50.8,14.1,73.1,10.3h0v63.1
		c0,6.8,1.3,13.4,3.8,19.7l6,15.1h30.8l0,0c0-7.9-6.4-14.4-14.4-14.4h0l0,0c-4.7-10.3-5.9-21.9-3.6-33l5.8-47l26.2-27.2
		c5.2-5.4,8.9-12.1,10.7-19.4l8.7-34.8l29.3,4.9c7.1,0.9,14.1-2.6,17.6-8.8l4-7.1l4.2-6.1l-30.4-23v-1.3c0-13.2-10.7-23.9-23.9-23.9
		h0l-3.6-29.1l-16.9,30l-55.6,47.6l-127.3,10.2"/>
	<path class="st6" d="M10.5,221.7l22.4,67.4h29.2v0c0-8.5-4.5-15.4-13-15.4h-2.3l-5.3-34.6l7.4-11c6.5-9.7,10.8-21.4,12.5-32.8"/>
	<path class="st6" d="M153.3,215.2l21.5,23.2l-3.2,6.3c-4.1,8-3.6,17.6,1.1,25.2l0,0l15-22.3c5.3-7.9,5.2-18.2-0.3-26l-23.1-37.5"/>
	<path class="st6" d="M-5.3,113.1c-15.1-10.2-24.1-28.2-21.9-47.6c2.5-22.2,22.5-38.2,44.7-35.7c17.8,2,30.6,18,28.6,35.8
		c-1.6,14.2-14.4,24.4-28.6,22.9C6.1,87.2-2.1,76.9-0.8,65.5c1-9.1,9.2-15.6,18.3-14.6c7.3,0.8,12.5,7.4,11.7,14.7"/>
	<g class="st4">
		<circle id="Oval" class="st7" cx="234" cy="205.6" r="34.1"/>
		<line id="Line-5" class="st7" x1="234" y1="277.2" x2="234" y2="239.7"/>
		<line id="Line-6" class="st7" x1="221.8" y1="265" x2="246.2" y2="265"/>
		<line id="Line-5_1_" class="st7" x1="285.4" y1="159" x2="261.3" y2="181.2"/>
		<polyline id="Path" class="st7" points="266.1,159 285.4,159 285.4,178.3 		"/>
	</g>
	<g class="st4">
		<path class="st8" d="M275.6,38.5l-12.8,11.9c-4.1,3.8-10.5,3.6-14.4-0.5l0,0c-3.8-4.1-3.6-10.5,0.5-14.4l12.8-11.9L275.6,38.5z"/>
		<path class="st9" d="M261.9,23.5l12.8-11.9c4.1-3.8,10.5-3.6,14.4,0.5v0c3.8,4.1,3.6,10.5-0.5,14.4l-12.8,11.9L261.9,23.5z"/>
	</g>
	<g class="st4">
		<path class="st9" d="M321.9,45.1c5.5,1.1,9.1,6.4,8.1,11.9c-1.1,5.5-6.4,9.1-11.9,8.1L321.9,45.1z"/>
		<path class="st8" d="M318.1,65.1c-5.5-1.1-9.1-6.4-8.1-11.9c1.1-5.5,6.4-9.1,11.9-8.1L318.1,65.1z"/>
	</g>
	<g class="st4">
		<path class="st9" d="M366.5,27.2c-5.6-0.5-9.7-5.4-9.2-11c0.5-5.6,5.4-9.7,11-9.2L366.5,27.2z"/>
		<path class="st8" d="M368.2,7c5.6,0.5,9.7,5.4,9.2,11c-0.5,5.6-5.4,9.7-11,9.2L368.2,7z"/>
	</g>
</g>
</svg>
