<svg width="340" height="303" viewBox="0 0 340 303" fill="none" xmlns="http://www.w3.org/2000/svg">
<mask id="mask0" mask-type="alpha" maskUnits="userSpaceOnUse" x="0" y="0" width="340" height="303">
<path d="M0 20C0 8.95431 8.95431 0 20 0H320C331.046 0 340 8.95431 340 20V303H0V20Z" fill="#F2F2EB"/>
</mask>
<g mask="url(#mask0)">
<path d="M0 20C0 8.95431 8.95431 0 20 0H320C331.046 0 340 8.95431 340 20V303H0V20Z" fill="#F2F2EB"/>
<path d="M328.369 274.842C328.369 277.796 327.494 280.685 325.853 283.142C324.213 285.598 321.881 287.513 319.153 288.644C316.426 289.775 313.424 290.071 310.528 289.494C307.632 288.918 304.972 287.495 302.884 285.405C300.796 283.316 299.375 280.654 298.799 277.756C298.223 274.858 298.518 271.854 299.648 269.124C300.778 266.395 302.691 264.061 305.147 262.42C307.602 260.778 310.488 259.902 313.44 259.902C317.4 259.902 321.197 261.476 323.997 264.278C326.796 267.079 328.369 270.879 328.369 274.842" fill="#EFB9D5"/>
<path d="M97.4786 42.2679C97.4765 49.7623 94.5006 56.9492 89.2051 62.2485C83.9096 67.5479 76.728 70.526 69.2391 70.528C61.7495 70.528 54.5666 67.5506 49.2707 62.2508C43.9747 56.951 40.9995 49.763 40.9995 42.2679C40.9985 38.5561 41.7282 34.8804 43.1469 31.4508C44.5656 28.0213 46.6455 24.905 49.2679 22.28C51.8903 19.6549 55.0038 17.5726 58.4304 16.1519C61.8571 14.7312 65.5299 14 69.2391 14C76.7294 14.0021 83.9122 16.9812 89.2079 22.2822C94.5036 27.5833 97.4786 34.7722 97.4786 42.2679" stroke="#C4E8E5" stroke-width="14.49" stroke-miterlimit="10"/>
<path d="M314 180C314 193.647 309.953 206.987 302.371 218.334C294.79 229.681 284.013 238.525 271.405 243.748C258.797 248.97 244.923 250.337 231.539 247.674C218.154 245.012 205.859 238.44 196.21 228.79C186.56 219.141 179.988 206.846 177.326 193.461C174.663 180.077 176.03 166.203 181.252 153.595C186.475 140.987 195.319 130.21 206.666 122.629C218.013 115.047 231.353 111 245 111C263.3 111 280.85 118.27 293.79 131.21C306.73 144.15 314 161.7 314 180" fill="#C4E8E5"/>
<path d="M116.798 215.591C121.28 215.59 125.717 216.473 129.858 218.189C133.998 219.905 137.76 222.42 140.929 225.591C144.098 228.762 146.611 232.527 148.326 236.67C150.04 240.814 150.922 245.255 150.921 249.739V269.948H163.106C166.892 269.948 170.523 271.454 173.2 274.133C175.878 276.812 177.382 280.446 177.382 284.235H107.399L105.576 282.41C88.2365 265.054 78.4949 241.517 78.4932 216.974C78.4951 197.937 86.0535 179.68 99.506 166.219C112.958 152.758 131.203 145.196 150.227 145.196L150.95 80.3834L164.698 95.0171C173.592 91.8634 183.299 91.8634 192.193 95.0171L205.94 80.3834L204.298 146.369L193.141 189.09C187.465 210.846 187.948 233.753 194.537 255.249L199.667 272.012C202.253 272.012 204.732 273.039 206.561 274.868C208.39 276.697 209.419 279.178 209.421 281.765V284.582H190.225" stroke="#EFB9D5" stroke-width="7.2" stroke-linecap="round" stroke-linejoin="round"/>
<path d="M84.5496 181.885C80.9318 203.753 75.0276 208.676 68.0959 220.45C63.3783 228.415 58.0457 236.872 58.914 247.552C60.513 267.298 77.2779 268.312 88.124 268.058" stroke="#EFB9D5" stroke-width="7.2" stroke-linecap="round" stroke-linejoin="round"/>
<path d="M105.72 284.162C102.023 284.162 90.5763 284.582 80.7721 284.423C70.0562 284.423 58.776 279.513 51.8298 273.402C44.4134 266.885 40.6581 257.429 41.2659 246.785C42.1197 231.76 47.1339 222.354 53.6098 212.854" stroke="#EFB9D5" stroke-width="7.2" stroke-linecap="round" stroke-linejoin="round"/>
<path d="M83.6376 187.555C88.0947 162.248 74.9549 144.964 55.8964 140.938C45.9935 138.843 35.6644 140.77 27.1811 146.295C18.6977 151.82 12.7548 160.492 10.6597 170.401C8.98594 178.328 10.5269 186.595 14.9436 193.384C19.3603 200.174 26.2911 204.929 34.2114 206.606C40.5437 207.945 47.1481 206.714 52.5746 203.184C58.001 199.655 61.8059 194.114 63.1537 187.779C63.6842 185.267 63.7149 182.675 63.2442 180.151C62.7735 177.627 61.8105 175.22 60.4103 173.068C59.01 170.917 57.1999 169.062 55.0834 167.611C52.9669 166.159 50.5853 165.139 48.0748 164.609C44.0183 163.757 39.7901 164.552 36.3186 166.818C32.847 169.084 30.4159 172.636 29.559 176.694C28.88 179.941 29.5167 183.325 31.3292 186.103C33.1417 188.88 35.9818 190.825 39.2257 191.508" stroke="#EFB9D5" stroke-width="7.2" stroke-linecap="round" stroke-linejoin="round"/>
<path d="M312.412 112.634C313.079 110.77 313.181 108.758 312.705 106.839C312.229 104.92 311.195 103.175 309.728 101.816C308.261 100.457 306.422 99.5399 304.434 99.1758C302.446 98.8117 300.392 99.0158 298.52 99.7636C296.647 100.511 295.036 101.771 293.88 103.391C292.723 105.011 292.071 106.923 292.001 108.896C291.931 110.87 292.446 112.821 293.485 114.515C294.524 116.209 296.042 117.575 297.857 118.447L294.976 126.51H294.939C294.212 126.264 293.415 126.309 292.722 126.636C292.03 126.962 291.498 127.543 291.244 128.252L281.161 156.389C280.908 157.098 280.955 157.876 281.289 158.552C281.624 159.228 282.219 159.747 282.945 159.995L285.451 160.845C286.177 161.089 286.974 161.043 287.666 160.717C288.358 160.391 288.89 159.81 289.146 159.103L299.191 130.954C299.315 130.601 299.367 130.228 299.343 129.855C299.319 129.483 299.221 129.119 299.053 128.784C298.884 128.449 298.65 128.15 298.363 127.903C298.077 127.657 297.743 127.468 297.381 127.347H297.343L300.256 119.279C302.764 119.81 305.384 119.427 307.623 118.203C309.862 116.979 311.565 114.999 312.412 112.634V112.634ZM294.995 106.705C295.513 105.258 296.458 103.994 297.712 103.071C298.966 102.149 300.472 101.61 302.039 101.523C303.606 101.435 305.165 101.803 306.518 102.58C307.872 103.357 308.958 104.509 309.642 105.888C310.325 107.268 310.574 108.814 310.357 110.332C310.14 111.85 309.467 113.271 308.423 114.415C307.379 115.56 306.011 116.376 304.491 116.762C302.972 117.148 301.369 117.086 299.886 116.583C298.899 116.25 297.988 115.73 297.207 115.053C296.426 114.376 295.789 113.555 295.333 112.637C294.877 111.72 294.61 110.724 294.549 109.706C294.488 108.688 294.633 107.668 294.976 106.705H294.995ZM295.803 132.898L292.671 131.828L293.623 129.059C293.637 129.017 293.66 128.979 293.689 128.946C293.719 128.913 293.755 128.886 293.795 128.867C293.835 128.847 293.879 128.836 293.924 128.833C293.968 128.831 294.013 128.837 294.056 128.851L296.561 129.701C296.644 129.731 296.713 129.792 296.751 129.871C296.79 129.949 296.796 130.04 296.767 130.122L295.778 132.892L295.803 132.898ZM286.734 158.284C286.702 158.366 286.638 158.433 286.557 158.47C286.475 158.508 286.382 158.513 286.296 158.485L283.791 157.636C283.706 157.607 283.636 157.546 283.596 157.467C283.557 157.388 283.55 157.298 283.578 157.214L291.807 134.187L294.939 135.257L286.734 158.284Z" fill="#0A45B8"/>
<path d="M304.918 105.2C304.98 105.019 305.007 104.826 304.999 104.632C304.99 104.439 304.946 104.25 304.869 104.076C304.792 103.901 304.684 103.746 304.551 103.619C304.418 103.492 304.262 103.396 304.095 103.336C302.715 102.809 301.201 102.905 299.885 103.601C298.569 104.297 297.558 105.538 297.075 107.05C296.958 107.417 296.979 107.82 297.132 108.17C297.286 108.521 297.561 108.789 297.895 108.918C298.23 109.046 298.597 109.023 298.916 108.855C299.236 108.686 299.481 108.385 299.598 108.018C299.851 107.242 300.374 106.607 301.052 106.252C301.731 105.897 302.51 105.852 303.219 106.125C303.386 106.187 303.562 106.212 303.738 106.199C303.914 106.186 304.085 106.135 304.243 106.05C304.401 105.964 304.542 105.844 304.658 105.699C304.774 105.553 304.862 105.384 304.918 105.2V105.2Z" fill="#0A45B8"/>
<path d="M260.901 114.355H260.865L264.039 105.19C264.097 105.036 264.122 104.871 264.115 104.707C264.107 104.543 264.067 104.381 263.996 104.233C263.925 104.085 263.826 103.952 263.703 103.844C263.58 103.735 263.436 103.653 263.281 103.601C261.349 102.925 259.763 101.503 258.872 99.6501C257.982 97.7967 257.859 95.6631 258.531 93.7185C259.203 91.774 260.615 90.1778 262.456 89.2812C264.298 88.3846 266.417 88.2609 268.349 88.9375C268.66 89.0469 269.001 89.0275 269.298 88.8837C269.594 88.7399 269.822 88.4834 269.93 88.1707C270.039 87.8579 270.02 87.5146 269.877 87.2161C269.734 86.9176 269.479 86.6884 269.169 86.5791C266.72 85.7131 264.034 85.8217 261.662 86.8826C259.29 87.9435 257.41 89.8765 256.407 92.2863C255.403 94.6962 255.353 97.4008 256.265 99.847C257.177 102.293 258.983 104.296 261.314 105.447L258.528 113.499H258.491C257.787 113.253 257.015 113.299 256.343 113.625C255.672 113.951 255.157 114.533 254.91 115.241L245.156 143.389C244.911 144.098 244.956 144.876 245.28 145.552C245.605 146.227 246.182 146.746 246.886 146.994L249.314 147.843C250.018 148.089 250.79 148.044 251.462 147.718C252.133 147.391 252.648 146.81 252.895 146.102L262.649 117.966C262.771 117.613 262.822 117.24 262.8 116.867C262.778 116.495 262.683 116.13 262.52 115.795C262.358 115.459 262.131 115.16 261.853 114.912C261.576 114.665 261.252 114.476 260.901 114.355V114.355ZM255.475 121.192L258.51 122.255L250.534 145.271C250.503 145.354 250.442 145.423 250.363 145.461C250.284 145.5 250.192 145.506 250.109 145.479L247.681 144.63C247.598 144.6 247.531 144.54 247.492 144.461C247.454 144.382 247.447 144.291 247.474 144.208L255.475 121.192ZM257.247 116.072C257.277 115.988 257.339 115.92 257.418 115.881C257.497 115.843 257.588 115.836 257.672 115.864L260.1 116.713C260.141 116.727 260.179 116.749 260.212 116.778C260.245 116.806 260.272 116.841 260.291 116.881C260.31 116.92 260.321 116.962 260.324 117.006C260.327 117.05 260.321 117.094 260.306 117.135L259.347 119.903L256.312 118.833L257.271 116.072H257.247Z" fill="#0A45B8"/>
<path d="M279.08 121.082L282.15 112.235C282.263 111.946 282.263 111.625 282.15 111.336L278.338 102.244L287.429 96.3151C287.708 96.1331 287.904 95.8472 287.973 95.5205C288.042 95.1938 287.979 94.8529 287.797 94.5729C287.616 94.2929 287.331 94.0967 287.005 94.0274C286.679 93.9581 286.339 94.0215 286.06 94.2035L276.066 100.704C275.815 100.86 275.629 101.102 275.541 101.384C275.453 101.667 275.47 101.972 275.588 102.244L279.621 111.86L276.705 120.25H276.637C275.925 120.004 275.144 120.051 274.466 120.379C273.788 120.708 273.266 121.292 273.016 122.005L263.157 150.354C262.91 151.069 262.956 151.852 263.284 152.533C263.611 153.214 264.195 153.737 264.907 153.986L267.362 154.842C268.074 155.09 268.856 155.045 269.535 154.716C270.213 154.387 270.735 153.801 270.984 153.088L280.848 124.769C280.979 124.411 281.036 124.03 281.018 123.649C280.999 123.268 280.905 122.895 280.74 122.551C280.575 122.208 280.343 121.901 280.058 121.648C279.773 121.396 279.441 121.203 279.08 121.082ZM275.815 122.602L278.27 123.458C278.312 123.472 278.35 123.494 278.384 123.523C278.417 123.552 278.444 123.587 278.463 123.626C278.483 123.666 278.494 123.709 278.497 123.753C278.499 123.797 278.493 123.841 278.479 123.883L277.509 126.671L274.44 125.594L275.41 122.811C275.44 122.733 275.498 122.668 275.573 122.63C275.647 122.591 275.733 122.581 275.815 122.602V122.602ZM268.172 152.441L265.717 151.586C265.676 151.571 265.638 151.549 265.606 151.519C265.573 151.49 265.547 151.455 265.528 151.415C265.509 151.376 265.498 151.333 265.496 151.289C265.494 151.246 265.5 151.202 265.514 151.161L273.58 127.97L276.65 129.042L268.584 152.232C268.553 152.312 268.494 152.377 268.418 152.416C268.342 152.455 268.255 152.464 268.172 152.441V152.441Z" fill="#0A45B8"/>
<path d="M241.367 225.751H241.269L234.684 226.869C234.615 226.799 234.54 226.737 234.458 226.684L227.397 222.358C226.76 221.996 226.006 221.904 225.302 222.103C224.598 222.302 224.001 222.776 223.641 223.421L221.44 227.129C221.044 227.751 220.908 228.507 221.061 229.231C221.215 229.954 221.644 230.587 222.257 230.991L229.324 235.316C229.406 235.367 229.494 235.406 229.586 235.434L231.665 241.86C231.665 241.891 231.665 241.922 231.696 241.953C232.198 243.037 232.982 243.962 233.964 244.628L265.428 265.589C265.723 265.777 266.052 265.904 266.397 265.963C266.741 266.022 267.093 266.011 267.433 265.931C267.773 265.851 268.094 265.704 268.378 265.498C268.662 265.291 268.902 265.03 269.086 264.73L278.629 248.738C278.809 248.431 278.926 248.09 278.975 247.737C279.023 247.383 279.002 247.023 278.911 246.678C278.821 246.333 278.664 246.009 278.449 245.726C278.234 245.443 277.966 245.207 277.659 245.03L244.793 226.566C243.747 225.98 242.561 225.698 241.367 225.751V225.751ZM223.501 228.896C223.403 228.84 223.354 228.599 223.501 228.371L225.702 224.663C225.842 224.434 226.074 224.366 226.171 224.422L232.208 228.13L229.549 232.579L223.513 228.871L223.501 228.896ZM233.952 241.038L231.757 234.241C231.717 234.122 231.659 234.009 231.586 233.907L234.312 229.341C234.435 229.362 234.561 229.362 234.684 229.341L241.641 228.161C242.333 228.162 243.013 228.336 243.623 228.667L271.592 244.394C271.435 244.493 271.304 244.628 271.208 244.789L262.208 259.86C262.113 260.022 262.056 260.204 262.043 260.392L235.275 242.558C234.72 242.167 234.266 241.645 233.952 241.038ZM276.592 247.471L267.05 263.463C267.013 263.508 266.962 263.539 266.905 263.55C266.848 263.561 266.789 263.552 266.739 263.525L263.793 261.566C263.984 261.462 264.144 261.308 264.257 261.121L273.257 246.05C273.367 245.863 273.424 245.649 273.422 245.432L276.47 247.143C276.523 247.177 276.561 247.229 276.578 247.289C276.595 247.35 276.589 247.415 276.562 247.471H276.592Z" fill="#0A45B8"/>
<path d="M270.49 194.145L263.368 198.253C262.788 197.966 262.132 197.873 261.497 197.989C260.861 198.104 260.278 198.422 259.833 198.895C259.389 199.368 259.105 199.973 259.024 200.621C258.943 201.268 259.068 201.925 259.382 202.496L268.421 218.559C268.539 218.781 268.684 218.987 268.852 219.172L276.417 227.265L288.41 248.583C288.828 249.246 289.482 249.721 290.238 249.91C290.993 250.099 291.791 249.988 292.467 249.599C293.143 249.21 293.646 248.573 293.871 247.82C294.095 247.068 294.025 246.256 293.675 245.554L281.506 223.918C281.387 223.695 281.24 223.489 281.069 223.305L273.505 215.212L273.371 214.972L280.044 211.128C280.315 210.967 280.514 210.705 280.597 210.398C280.681 210.092 280.644 209.764 280.493 209.485L278.4 205.764L276.307 202.06L274.214 198.339L272.116 194.617C271.959 194.34 271.701 194.136 271.397 194.048C271.094 193.96 270.768 193.995 270.49 194.145V194.145ZM273.644 202.189L267.984 205.439L267.068 203.808L272.728 200.558L273.644 202.189ZM269.161 207.535L274.821 204.28L275.737 205.911L270.077 209.16L269.161 207.535ZM271.551 198.468L265.892 201.717L264.975 200.086L270.635 196.837L271.551 198.468ZM279.322 224.972C279.359 225.008 279.39 225.049 279.413 225.095L291.582 246.725C291.651 246.874 291.661 247.044 291.612 247.2C291.563 247.357 291.457 247.489 291.316 247.571C291.175 247.653 291.009 247.678 290.851 247.642C290.692 247.605 290.553 247.51 290.46 247.375L278.4 225.916L270.563 217.48C270.526 217.445 270.495 217.403 270.472 217.357L261.433 201.294C261.36 201.154 261.339 200.992 261.376 200.839C261.413 200.685 261.503 200.55 261.631 200.459C261.759 200.368 261.916 200.327 262.071 200.344C262.227 200.361 262.371 200.435 262.476 200.552L264.387 203.955L266.48 207.677L268.579 211.398L270.672 215.12C270.709 215.193 270.756 215.261 270.811 215.322L271.485 216.518L279.322 224.972ZM277.83 209.645L272.176 212.894L271.254 211.257L276.908 208.001L277.83 209.645Z" fill="#0A45B8"/>
</g>
</svg>
